<svg width="240" height="125" viewBox="0 0 240 125" fill="none" xmlns="http://www.w3.org/2000/svg">
<path d="M160.019 92.7048C160.019 109.989 146.008 124 128.724 124C111.44 124 97.4285 109.989 97.4285 92.7048C97.4285 75.4209 111.44 61.4095 128.724 61.4095C146.008 61.4095 160.019 75.4209 160.019 92.7048Z" fill="#7071E3" fill-opacity="0.04"/>
<path d="M160.609 92.7048C160.216 92.7048 159.822 92.7048 159.428 92.7048C159.439 95.9262 158.947 99.1413 157.962 102.206C154.143 114.59 141.753 123.709 128.724 123.557C112.294 124.011 97.375 109.221 97.7237 92.7048C97.2686 76.1966 112.129 61.2067 128.724 61.5571C141.874 61.3219 154.502 70.4616 158.467 83.0397C159.489 86.1513 160.01 89.4226 160.019 92.7048C160.03 89.4226 159.528 86.1451 158.523 83.0215C154.63 70.3978 142.002 61.1066 128.724 61.2619C111.979 60.8016 96.7777 75.8734 97.1332 92.7048C96.6713 109.528 111.814 124.8 128.724 124.443C142.123 124.681 154.989 115.369 159.029 102.552C160.07 99.3813 160.601 96.0475 160.609 92.7048ZM159.428 92.7048H160.609H160.019H159.428Z" fill="#4C4DDC" fill-opacity="0.17"/>
<rect x="194.267" y="79.1238" width="37.7905" height="37.7905" rx="18.8952" fill="#D4E2FF" fill-opacity="0.58"/>
<rect x="190.724" y="75.581" width="44.8762" height="44.8762" rx="22.4381" stroke="#EAF1FF" stroke-opacity="0.33" stroke-width="7.08571"/>
<g clip-path="url(#clip0_46_3670)">
<path d="M205.003 105.105H208.009V97.8044L203.714 94.5836V103.816C203.714 104.529 204.292 105.105 205.003 105.105Z" fill="#ECEAF5"/>
<path d="M218.315 105.105H221.321C222.034 105.105 222.61 104.527 222.61 103.816V94.5836L218.315 97.8044" fill="#ECEAF5"/>
<path d="M218.315 92.2217V97.8044L222.61 94.5836V92.8658C222.61 91.2726 220.791 90.3644 219.518 91.3199" fill="#ECEAF5"/>
<path d="M208.008 97.8044V92.2217L213.162 96.0866L218.315 92.2217V97.8044L213.162 101.669" fill="#ECEAF5"/>
<path d="M203.714 92.8661V94.5838L208.009 97.8046V92.2219L206.806 91.3201C205.531 90.3646 203.714 91.2729 203.714 92.8661Z" fill="#ECEAF5"/>
</g>
<path d="M125.198 14.4676V14.1723H125.493V14.4676H125.198ZM89.1619 14.4676L92.1143 12.763V16.1721L89.1619 14.4676ZM184.819 100.381L181.867 102.086V98.6764L184.819 100.381ZM183.104 100.676C182.94 100.676 182.808 100.544 182.808 100.381C182.808 100.218 182.94 100.086 183.104 100.086V100.381V100.676ZM179.672 100.086C179.835 100.086 179.968 100.218 179.968 100.381C179.968 100.544 179.835 100.676 179.672 100.676V100.381V100.086ZM176.241 100.676C176.078 100.676 175.946 100.544 175.946 100.381C175.946 100.218 176.078 100.086 176.241 100.086V100.381V100.676ZM172.81 100.086C172.973 100.086 173.105 100.218 173.105 100.381C173.105 100.544 172.973 100.676 172.81 100.676V100.381V100.086ZM169.379 100.676C169.216 100.676 169.084 100.544 169.084 100.381C169.084 100.218 169.216 100.086 169.379 100.086V100.381V100.676ZM165.948 100.086C166.111 100.086 166.243 100.218 166.243 100.381C166.243 100.544 166.111 100.676 165.948 100.676V100.381V100.086ZM162.517 100.676C162.354 100.676 162.222 100.544 162.222 100.381C162.222 100.218 162.354 100.086 162.517 100.086V100.381V100.676ZM159.086 100.086C159.249 100.086 159.381 100.218 159.381 100.381C159.381 100.544 159.249 100.676 159.086 100.676V100.381V100.086ZM155.655 100.676C155.492 100.676 155.359 100.544 155.359 100.381C155.359 100.218 155.492 100.086 155.655 100.086V100.381V100.676ZM152.224 100.086C152.387 100.086 152.519 100.218 152.519 100.381C152.519 100.544 152.387 100.676 152.224 100.676V100.381V100.086ZM148.792 100.676C148.629 100.676 148.497 100.544 148.497 100.381C148.497 100.218 148.629 100.086 148.792 100.086V100.381V100.676ZM145.361 100.086C145.524 100.086 145.657 100.218 145.657 100.381C145.657 100.544 145.524 100.676 145.361 100.676V100.381V100.086ZM141.93 100.676C141.767 100.676 141.635 100.544 141.635 100.381C141.635 100.218 141.767 100.086 141.93 100.086V100.381V100.676ZM138.499 100.086C138.662 100.086 138.794 100.218 138.794 100.381C138.794 100.544 138.662 100.676 138.499 100.676V100.381V100.086ZM135.068 100.676C134.905 100.676 134.773 100.544 134.773 100.381C134.773 100.218 134.905 100.086 135.068 100.086V100.381V100.676ZM131.637 100.086C131.8 100.086 131.932 100.218 131.932 100.381C131.932 100.544 131.8 100.676 131.637 100.676V100.381V100.086ZM128 100.295C127.849 100.233 127.778 100.06 127.84 99.9094C127.903 99.7588 128.076 99.6873 128.226 99.7498L128.113 100.023L128 100.295ZM125.829 97.3523C125.891 97.5029 125.82 97.6756 125.669 97.7381C125.519 97.8006 125.346 97.7291 125.283 97.5785L125.556 97.4654L125.829 97.3523ZM124.902 93.8119C124.902 93.6489 125.035 93.5167 125.198 93.5167C125.361 93.5167 125.493 93.6489 125.493 93.8119H125.198H124.902ZM125.493 90.1215C125.493 90.2846 125.361 90.4167 125.198 90.4167C125.035 90.4167 124.902 90.2846 124.902 90.1215H125.198H125.493ZM124.902 86.4311C124.902 86.268 125.035 86.1358 125.198 86.1358C125.361 86.1358 125.493 86.268 125.493 86.4311H125.198H124.902ZM125.493 82.7406C125.493 82.9037 125.361 83.0359 125.198 83.0359C125.035 83.0359 124.902 82.9037 124.902 82.7406H125.198H125.493ZM124.902 79.0502C124.902 78.8871 125.035 78.755 125.198 78.755C125.361 78.755 125.493 78.8871 125.493 79.0502H125.198H124.902ZM125.493 75.3598C125.493 75.5228 125.361 75.655 125.198 75.655C125.035 75.655 124.902 75.5228 124.902 75.3598H125.198H125.493ZM124.902 71.6693C124.902 71.5063 125.035 71.3741 125.198 71.3741C125.361 71.3741 125.493 71.5063 125.493 71.6693H125.198H124.902ZM125.493 67.9789C125.493 68.1419 125.361 68.2741 125.198 68.2741C125.035 68.2741 124.902 68.1419 124.902 67.9789H125.198H125.493ZM124.902 64.2884C124.902 64.1254 125.035 63.9932 125.198 63.9932C125.361 63.9932 125.493 64.1254 125.493 64.2884H125.198H124.902ZM125.493 60.598C125.493 60.7611 125.361 60.8932 125.198 60.8932C125.035 60.8932 124.902 60.7611 124.902 60.598H125.198H125.493ZM124.902 56.9076C124.902 56.7445 125.035 56.6123 125.198 56.6123C125.361 56.6123 125.493 56.7445 125.493 56.9076H125.198H124.902ZM125.493 53.2171C125.493 53.3802 125.361 53.5124 125.198 53.5124C125.035 53.5124 124.902 53.3802 124.902 53.2171H125.198H125.493ZM124.902 49.5267C124.902 49.3636 125.035 49.2315 125.198 49.2315C125.361 49.2315 125.493 49.3636 125.493 49.5267H125.198H124.902ZM125.493 45.8363C125.493 45.9993 125.361 46.1315 125.198 46.1315C125.035 46.1315 124.902 45.9993 124.902 45.8363H125.198H125.493ZM124.902 42.1458C124.902 41.9828 125.035 41.8506 125.198 41.8506C125.361 41.8506 125.493 41.9828 125.493 42.1458H125.198H124.902ZM125.493 38.4554C125.493 38.6184 125.361 38.7506 125.198 38.7506C125.035 38.7506 124.902 38.6184 124.902 38.4554H125.198H125.493ZM124.902 34.7649C124.902 34.6019 125.035 34.4697 125.198 34.4697C125.361 34.4697 125.493 34.6019 125.493 34.7649H125.198H124.902ZM125.493 31.0745C125.493 31.2376 125.361 31.3697 125.198 31.3697C125.035 31.3697 124.902 31.2376 124.902 31.0745H125.198H125.493ZM124.902 27.3841C124.902 27.221 125.035 27.0888 125.198 27.0888C125.361 27.0888 125.493 27.221 125.493 27.3841H125.198H124.902ZM125.493 23.6936C125.493 23.8567 125.361 23.9889 125.198 23.9889C125.035 23.9889 124.902 23.8567 124.902 23.6936H125.198H125.493ZM124.902 20.0032C124.902 19.8401 125.035 19.708 125.198 19.708C125.361 19.708 125.493 19.8401 125.493 20.0032H125.198H124.902ZM125.493 16.3128C125.493 16.4758 125.361 16.608 125.198 16.608C125.035 16.608 124.902 16.4758 124.902 16.3128H125.198H125.493ZM123.396 14.7628C123.233 14.7628 123.101 14.6306 123.101 14.4676C123.101 14.3045 123.233 14.1723 123.396 14.1723V14.4676V14.7628ZM119.792 14.1723C119.955 14.1723 120.088 14.3045 120.088 14.4676C120.088 14.6306 119.955 14.7628 119.792 14.7628V14.4676V14.1723ZM116.189 14.7628C116.026 14.7628 115.893 14.6306 115.893 14.4676C115.893 14.3045 116.026 14.1723 116.189 14.1723V14.4676V14.7628ZM112.585 14.1723C112.748 14.1723 112.88 14.3045 112.88 14.4676C112.88 14.6306 112.748 14.7628 112.585 14.7628V14.4676V14.1723ZM108.982 14.7628C108.819 14.7628 108.686 14.6306 108.686 14.4676C108.686 14.3045 108.819 14.1723 108.982 14.1723V14.4676V14.7628ZM105.378 14.1723C105.541 14.1723 105.673 14.3045 105.673 14.4676C105.673 14.6306 105.541 14.7628 105.378 14.7628V14.4676V14.1723ZM101.774 14.7628C101.611 14.7628 101.479 14.6306 101.479 14.4676C101.479 14.3045 101.611 14.1723 101.774 14.1723V14.4676V14.7628ZM98.1709 14.1723C98.3339 14.1723 98.4661 14.3045 98.4661 14.4676C98.4661 14.6306 98.3339 14.7628 98.1709 14.7628V14.4676V14.1723ZM94.5673 14.7628C94.4042 14.7628 94.2721 14.6306 94.2721 14.4676C94.2721 14.3045 94.4042 14.1723 94.5673 14.1723V14.4676V14.7628ZM90.9637 14.1723C91.1268 14.1723 91.259 14.3045 91.259 14.4676C91.259 14.6306 91.1268 14.7628 90.9637 14.7628V14.4676V14.1723ZM179.672 100.381V100.676H176.241V100.381V100.086H179.672V100.381ZM172.81 100.381V100.676H169.379V100.381V100.086H172.81V100.381ZM165.948 100.381V100.676H162.517V100.381V100.086H165.948V100.381ZM159.086 100.381V100.676H155.655V100.381V100.086H159.086V100.381ZM152.224 100.381V100.676H148.792V100.381V100.086H152.224V100.381ZM145.361 100.381V100.676H141.93V100.381V100.086H145.361V100.381ZM138.499 100.381V100.676H135.068V100.381V100.086H138.499V100.381ZM131.637 100.381V100.676H129.921V100.381V100.086H131.637V100.381ZM129.921 100.381V100.676C129.241 100.676 128.592 100.541 128 100.295L128.113 100.023L128.226 99.7498C128.748 99.9662 129.32 100.086 129.921 100.086V100.381ZM125.556 97.4654L125.283 97.5785C125.038 96.9863 124.902 96.3372 124.902 95.6572H125.198H125.493C125.493 96.2582 125.612 96.8305 125.829 97.3523L125.556 97.4654ZM125.198 95.6572H124.902V93.8119H125.198H125.493V95.6572H125.198ZM125.198 90.1215H124.902V86.4311H125.198H125.493V90.1215H125.198ZM125.198 82.7406H124.902V79.0502H125.198H125.493V82.7406H125.198ZM125.198 75.3598H124.902V71.6693H125.198H125.493V75.3598H125.198ZM125.198 67.9789H124.902V64.2884H125.198H125.493V67.9789H125.198ZM125.198 60.598H124.902V56.9076H125.198H125.493V60.598H125.198ZM125.198 53.2171H124.902V49.5267H125.198H125.493V53.2171H125.198ZM125.198 45.8363H124.902V42.1458H125.198H125.493V45.8363H125.198ZM125.198 38.4554H124.902V34.7649H125.198H125.493V38.4554H125.198ZM125.198 31.0745H124.902V27.3841H125.198H125.493V31.0745H125.198ZM125.198 23.6936H124.902V20.0032H125.198H125.493V23.6936H125.198ZM125.198 16.3128H124.902V14.4676H125.198H125.493V16.3128H125.198ZM125.198 14.4676V14.7628H123.396V14.4676V14.1723H125.198V14.4676ZM119.792 14.4676V14.7628H116.189V14.4676V14.1723H119.792V14.4676ZM112.585 14.4676V14.7628H108.982V14.4676V14.1723H112.585V14.4676ZM105.378 14.4676V14.7628H101.774V14.4676V14.1723H105.378V14.4676ZM98.1709 14.4676V14.7628H94.5673V14.4676V14.1723H98.1709V14.4676ZM125.198 14.4676V14.1723H125.493V14.4676H125.198ZM89.1619 14.4676L92.1143 12.763V16.1721L89.1619 14.4676ZM184.819 100.381L181.867 102.086V98.6764L184.819 100.381ZM183.104 100.676C182.94 100.676 182.808 100.544 182.808 100.381C182.808 100.218 182.94 100.086 183.104 100.086V100.381V100.676ZM179.672 100.086C179.835 100.086 179.968 100.218 179.968 100.381C179.968 100.544 179.835 100.676 179.672 100.676V100.381V100.086ZM176.241 100.676C176.078 100.676 175.946 100.544 175.946 100.381C175.946 100.218 176.078 100.086 176.241 100.086V100.381V100.676ZM172.81 100.086C172.973 100.086 173.105 100.218 173.105 100.381C173.105 100.544 172.973 100.676 172.81 100.676V100.381V100.086ZM169.379 100.676C169.216 100.676 169.084 100.544 169.084 100.381C169.084 100.218 169.216 100.086 169.379 100.086V100.381V100.676ZM165.948 100.086C166.111 100.086 166.243 100.218 166.243 100.381C166.243 100.544 166.111 100.676 165.948 100.676V100.381V100.086ZM162.517 100.676C162.354 100.676 162.222 100.544 162.222 100.381C162.222 100.218 162.354 100.086 162.517 100.086V100.381V100.676ZM159.086 100.086C159.249 100.086 159.381 100.218 159.381 100.381C159.381 100.544 159.249 100.676 159.086 100.676V100.381V100.086ZM155.655 100.676C155.492 100.676 155.359 100.544 155.359 100.381C155.359 100.218 155.492 100.086 155.655 100.086V100.381V100.676ZM152.224 100.086C152.387 100.086 152.519 100.218 152.519 100.381C152.519 100.544 152.387 100.676 152.224 100.676V100.381V100.086ZM148.792 100.676C148.629 100.676 148.497 100.544 148.497 100.381C148.497 100.218 148.629 100.086 148.792 100.086V100.381V100.676ZM145.361 100.086C145.524 100.086 145.657 100.218 145.657 100.381C145.657 100.544 145.524 100.676 145.361 100.676V100.381V100.086ZM141.93 100.676C141.767 100.676 141.635 100.544 141.635 100.381C141.635 100.218 141.767 100.086 141.93 100.086V100.381V100.676ZM138.499 100.086C138.662 100.086 138.794 100.218 138.794 100.381C138.794 100.544 138.662 100.676 138.499 100.676V100.381V100.086ZM135.068 100.676C134.905 100.676 134.773 100.544 134.773 100.381C134.773 100.218 134.905 100.086 135.068 100.086V100.381V100.676ZM131.637 100.086C131.8 100.086 131.932 100.218 131.932 100.381C131.932 100.544 131.8 100.676 131.637 100.676V100.381V100.086ZM128 100.295C127.849 100.233 127.778 100.06 127.84 99.9094C127.903 99.7588 128.076 99.6873 128.226 99.7498L128.113 100.023L128 100.295ZM125.829 97.3523C125.891 97.5029 125.82 97.6756 125.669 97.7381C125.519 97.8006 125.346 97.7291 125.283 97.5785L125.556 97.4654L125.829 97.3523ZM124.902 93.8119C124.902 93.6489 125.035 93.5167 125.198 93.5167C125.361 93.5167 125.493 93.6489 125.493 93.8119H125.198H124.902ZM125.493 90.1215C125.493 90.2846 125.361 90.4167 125.198 90.4167C125.035 90.4167 124.902 90.2846 124.902 90.1215H125.198H125.493ZM124.902 86.4311C124.902 86.268 125.035 86.1358 125.198 86.1358C125.361 86.1358 125.493 86.268 125.493 86.4311H125.198H124.902ZM125.493 82.7406C125.493 82.9037 125.361 83.0359 125.198 83.0359C125.035 83.0359 124.902 82.9037 124.902 82.7406H125.198H125.493ZM124.902 79.0502C124.902 78.8871 125.035 78.755 125.198 78.755C125.361 78.755 125.493 78.8871 125.493 79.0502H125.198H124.902ZM125.493 75.3598C125.493 75.5228 125.361 75.655 125.198 75.655C125.035 75.655 124.902 75.5228 124.902 75.3598H125.198H125.493ZM124.902 71.6693C124.902 71.5063 125.035 71.3741 125.198 71.3741C125.361 71.3741 125.493 71.5063 125.493 71.6693H125.198H124.902ZM125.493 67.9789C125.493 68.1419 125.361 68.2741 125.198 68.2741C125.035 68.2741 124.902 68.1419 124.902 67.9789H125.198H125.493ZM124.902 64.2884C124.902 64.1254 125.035 63.9932 125.198 63.9932C125.361 63.9932 125.493 64.1254 125.493 64.2884H125.198H124.902ZM125.493 60.598C125.493 60.7611 125.361 60.8932 125.198 60.8932C125.035 60.8932 124.902 60.7611 124.902 60.598H125.198H125.493ZM124.902 56.9076C124.902 56.7445 125.035 56.6123 125.198 56.6123C125.361 56.6123 125.493 56.7445 125.493 56.9076H125.198H124.902ZM125.493 53.2171C125.493 53.3802 125.361 53.5124 125.198 53.5124C125.035 53.5124 124.902 53.3802 124.902 53.2171H125.198H125.493ZM124.902 49.5267C124.902 49.3636 125.035 49.2315 125.198 49.2315C125.361 49.2315 125.493 49.3636 125.493 49.5267H125.198H124.902ZM125.493 45.8363C125.493 45.9993 125.361 46.1315 125.198 46.1315C125.035 46.1315 124.902 45.9993 124.902 45.8363H125.198H125.493ZM124.902 42.1458C124.902 41.9828 125.035 41.8506 125.198 41.8506C125.361 41.8506 125.493 41.9828 125.493 42.1458H125.198H124.902ZM125.493 38.4554C125.493 38.6184 125.361 38.7506 125.198 38.7506C125.035 38.7506 124.902 38.6184 124.902 38.4554H125.198H125.493ZM124.902 34.7649C124.902 34.6019 125.035 34.4697 125.198 34.4697C125.361 34.4697 125.493 34.6019 125.493 34.7649H125.198H124.902ZM125.493 31.0745C125.493 31.2376 125.361 31.3697 125.198 31.3697C125.035 31.3697 124.902 31.2376 124.902 31.0745H125.198H125.493ZM124.902 27.3841C124.902 27.221 125.035 27.0888 125.198 27.0888C125.361 27.0888 125.493 27.221 125.493 27.3841H125.198H124.902ZM125.493 23.6936C125.493 23.8567 125.361 23.9889 125.198 23.9889C125.035 23.9889 124.902 23.8567 124.902 23.6936H125.198H125.493ZM124.902 20.0032C124.902 19.8401 125.035 19.708 125.198 19.708C125.361 19.708 125.493 19.8401 125.493 20.0032H125.198H124.902ZM125.493 16.3128C125.493 16.4758 125.361 16.608 125.198 16.608C125.035 16.608 124.902 16.4758 124.902 16.3128H125.198H125.493ZM123.396 14.7628C123.233 14.7628 123.101 14.6306 123.101 14.4676C123.101 14.3045 123.233 14.1723 123.396 14.1723V14.4676V14.7628ZM119.792 14.1723C119.955 14.1723 120.088 14.3045 120.088 14.4676C120.088 14.6306 119.955 14.7628 119.792 14.7628V14.4676V14.1723ZM116.189 14.7628C116.026 14.7628 115.893 14.6306 115.893 14.4676C115.893 14.3045 116.026 14.1723 116.189 14.1723V14.4676V14.7628ZM112.585 14.1723C112.748 14.1723 112.88 14.3045 112.88 14.4676C112.88 14.6306 112.748 14.7628 112.585 14.7628V14.4676V14.1723ZM108.982 14.7628C108.819 14.7628 108.686 14.6306 108.686 14.4676C108.686 14.3045 108.819 14.1723 108.982 14.1723V14.4676V14.7628ZM105.378 14.1723C105.541 14.1723 105.673 14.3045 105.673 14.4676C105.673 14.6306 105.541 14.7628 105.378 14.7628V14.4676V14.1723ZM101.774 14.7628C101.611 14.7628 101.479 14.6306 101.479 14.4676C101.479 14.3045 101.611 14.1723 101.774 14.1723V14.4676V14.7628ZM98.1709 14.1723C98.3339 14.1723 98.4661 14.3045 98.4661 14.4676C98.4661 14.6306 98.3339 14.7628 98.1709 14.7628V14.4676V14.1723ZM94.5673 14.7628C94.4042 14.7628 94.2721 14.6306 94.2721 14.4676C94.2721 14.3045 94.4042 14.1723 94.5673 14.1723V14.4676V14.7628ZM90.9637 14.1723C91.1268 14.1723 91.259 14.3045 91.259 14.4676C91.259 14.6306 91.1268 14.7628 90.9637 14.7628V14.4676V14.1723ZM179.672 100.381V100.676H176.241V100.381V100.086H179.672V100.381ZM172.81 100.381V100.676H169.379V100.381V100.086H172.81V100.381ZM165.948 100.381V100.676H162.517V100.381V100.086H165.948V100.381ZM159.086 100.381V100.676H155.655V100.381V100.086H159.086V100.381ZM152.224 100.381V100.676H148.792V100.381V100.086H152.224V100.381ZM145.361 100.381V100.676H141.93V100.381V100.086H145.361V100.381ZM138.499 100.381V100.676H135.068V100.381V100.086H138.499V100.381ZM131.637 100.381V100.676H129.921V100.381V100.086H131.637V100.381ZM129.921 100.381V100.676C129.241 100.676 128.592 100.541 128 100.295L128.113 100.023L128.226 99.7498C128.748 99.9662 129.32 100.086 129.921 100.086V100.381ZM125.556 97.4654L125.283 97.5785C125.038 96.9863 124.902 96.3372 124.902 95.6572H125.198H125.493C125.493 96.2582 125.612 96.8305 125.829 97.3523L125.556 97.4654ZM125.198 95.6572H124.902V93.8119H125.198H125.493V95.6572H125.198ZM125.198 90.1215H124.902V86.4311H125.198H125.493V90.1215H125.198ZM125.198 82.7406H124.902V79.0502H125.198H125.493V82.7406H125.198ZM125.198 75.3598H124.902V71.6693H125.198H125.493V75.3598H125.198ZM125.198 67.9789H124.902V64.2884H125.198H125.493V67.9789H125.198ZM125.198 60.598H124.902V56.9076H125.198H125.493V60.598H125.198ZM125.198 53.2171H124.902V49.5267H125.198H125.493V53.2171H125.198ZM125.198 45.8363H124.902V42.1458H125.198H125.493V45.8363H125.198ZM125.198 38.4554H124.902V34.7649H125.198H125.493V38.4554H125.198ZM125.198 31.0745H124.902V27.3841H125.198H125.493V31.0745H125.198ZM125.198 23.6936H124.902V20.0032H125.198H125.493V23.6936H125.198ZM125.198 16.3128H124.902V14.4676H125.198H125.493V16.3128H125.198ZM125.198 14.4676V14.7628H123.396V14.4676V14.1723H125.198V14.4676ZM119.792 14.4676V14.7628H116.189V14.4676V14.1723H119.792V14.4676ZM112.585 14.4676V14.7628H108.982V14.4676V14.1723H112.585V14.4676ZM105.378 14.4676V14.7628H101.774V14.4676V14.1723H105.378V14.4676ZM98.1709 14.4676V14.7628H94.5673V14.4676V14.1723H98.1709V14.4676Z" fill="#C8C8F4" fill-opacity="0.5"/>
<rect x="0.511245" y="0.511245" width="84.9268" height="25.5622" rx="12.7811" fill="#8788E8"/>
<rect x="0.511245" y="0.511245" width="84.9268" height="25.5622" rx="12.7811" stroke="#EDEEEF" stroke-width="1.02249"/>
<path d="M13.0715 7.84232H16.1999C16.9095 7.84232 17.5088 7.95049 17.9977 8.16684C18.491 8.38318 18.8653 8.70338 19.1206 9.12742C19.3802 9.54713 19.51 10.0642 19.51 10.6786C19.51 11.1113 19.4213 11.5072 19.2439 11.8664C19.0708 12.2212 18.8198 12.5241 18.491 12.775C18.1665 13.0217 17.777 13.2056 17.3227 13.3267L16.9722 13.463H14.0321L14.0191 12.444H16.2388C16.6888 12.444 17.0631 12.3661 17.3617 12.2104C17.6602 12.0503 17.8852 11.8361 18.0367 11.5678C18.1881 11.2995 18.2638 11.0031 18.2638 10.6786C18.2638 10.3152 18.1924 9.99713 18.0496 9.72454C17.9068 9.45194 17.6818 9.24208 17.3746 9.09497C17.0717 8.94352 16.6802 8.8678 16.1999 8.8678H14.3241V17.2924H13.0715V7.84232ZM18.5948 17.2924L16.2972 13.0087L17.6018 13.0022L19.9319 17.2145V17.2924H18.5948ZM23.9949 17.4222C23.5059 17.4222 23.0624 17.34 22.6643 17.1755C22.2706 17.0068 21.9309 16.771 21.6453 16.4681C21.3641 16.1652 21.1477 15.8061 20.9963 15.3907C20.8448 14.9753 20.7691 14.521 20.7691 14.0277V13.7551C20.7691 13.1839 20.8535 12.6755 21.0222 12.2298C21.191 11.7798 21.4203 11.3991 21.7102 11.0875C22.0001 10.776 22.329 10.5402 22.6968 10.3801C23.0646 10.22 23.4453 10.1399 23.8391 10.1399C24.341 10.1399 24.7737 10.2265 25.1372 10.3995C25.505 10.5726 25.8057 10.8149 26.0393 11.1265C26.273 11.4337 26.4461 11.7971 26.5586 12.2169C26.6711 12.6322 26.7273 13.0866 26.7273 13.5798V14.1185H21.4831V13.1385H25.5266V13.0476C25.5093 12.7361 25.4444 12.4332 25.3319 12.139C25.2237 11.8447 25.0506 11.6024 24.8126 11.412C24.5747 11.2217 24.2501 11.1265 23.8391 11.1265C23.5665 11.1265 23.3155 11.1849 23.0862 11.3017C22.8569 11.4142 22.66 11.583 22.4956 11.808C22.3311 12.033 22.2035 12.3077 22.1126 12.6322C22.0218 12.9568 21.9763 13.331 21.9763 13.7551V14.0277C21.9763 14.3609 22.0218 14.6746 22.1126 14.9688C22.2078 15.2587 22.3441 15.514 22.5215 15.7347C22.7033 15.9553 22.9218 16.1284 23.1771 16.2539C23.4367 16.3794 23.7309 16.4421 24.0598 16.4421C24.4838 16.4421 24.8429 16.3556 25.1372 16.1825C25.4314 16.0094 25.6889 15.7779 25.9095 15.488L26.6365 16.0657C26.485 16.295 26.2925 16.5135 26.0588 16.7212C25.8252 16.9289 25.5374 17.0976 25.1956 17.2275C24.8581 17.3573 24.4578 17.4222 23.9949 17.4222ZM32.2182 15.4296C32.2182 15.2565 32.1793 15.0964 32.1014 14.9493C32.0278 14.7979 31.8742 14.6616 31.6406 14.5404C31.4112 14.4149 31.0651 14.3068 30.6021 14.2159C30.2127 14.1337 29.86 14.0363 29.5442 13.9238C29.2326 13.8113 28.9665 13.675 28.7458 13.5149C28.5295 13.3548 28.3629 13.1666 28.2461 12.9503C28.1292 12.7339 28.0708 12.4808 28.0708 12.1909C28.0708 11.914 28.1314 11.6522 28.2526 11.4056C28.378 11.1589 28.5533 10.9404 28.7783 10.75C29.0076 10.5596 29.2824 10.4104 29.6026 10.3022C29.9228 10.194 30.2797 10.1399 30.6735 10.1399C31.236 10.1399 31.7163 10.2394 32.1144 10.4385C32.5124 10.6375 32.8175 10.9036 33.0295 11.2368C33.2415 11.5657 33.3475 11.9313 33.3475 12.3337H32.1468C32.1468 12.139 32.0884 11.9507 31.9716 11.769C31.8591 11.583 31.6925 11.4294 31.4718 11.3082C31.2555 11.187 30.9894 11.1265 30.6735 11.1265C30.3403 11.1265 30.0699 11.1784 29.8622 11.2822C29.6588 11.3818 29.5095 11.5094 29.4143 11.6652C29.3235 11.8209 29.2781 11.9854 29.2781 12.1584C29.2781 12.2882 29.2997 12.4051 29.343 12.5089C29.3906 12.6084 29.4728 12.7015 29.5896 12.788C29.7064 12.8702 29.8708 12.9481 30.0829 13.0217C30.2949 13.0952 30.5653 13.1688 30.8942 13.2423C31.4696 13.3721 31.9434 13.5279 32.3156 13.7097C32.6877 13.8914 32.9646 14.1142 33.1463 14.3782C33.3281 14.6421 33.4189 14.9623 33.4189 15.3387C33.4189 15.646 33.354 15.9272 33.2242 16.1825C33.0987 16.4378 32.9148 16.6585 32.6725 16.8445C32.4346 17.0263 32.149 17.169 31.8158 17.2729C31.487 17.3724 31.117 17.4222 30.7059 17.4222C30.0872 17.4222 29.5636 17.3118 29.1353 17.0912C28.7069 16.8705 28.3824 16.5849 28.1617 16.2344C27.941 15.8839 27.8307 15.514 27.8307 15.1246H29.0379C29.0552 15.4534 29.1504 15.7152 29.3235 15.9099C29.4966 16.1003 29.7086 16.2366 29.9595 16.3188C30.2105 16.3967 30.4593 16.4356 30.7059 16.4356C31.0348 16.4356 31.3096 16.3924 31.5302 16.3058C31.7552 16.2193 31.9261 16.1003 32.043 15.9488C32.1598 15.7974 32.2182 15.6243 32.2182 15.4296ZM37.9103 17.4222C37.4214 17.4222 36.9778 17.34 36.5798 17.1755C36.186 17.0068 35.8463 16.771 35.5608 16.4681C35.2795 16.1652 35.0632 15.8061 34.9117 15.3907C34.7603 14.9753 34.6846 14.521 34.6846 14.0277V13.7551C34.6846 13.1839 34.7689 12.6755 34.9377 12.2298C35.1064 11.7798 35.3358 11.3991 35.6257 11.0875C35.9156 10.776 36.2444 10.5402 36.6122 10.3801C36.98 10.22 37.3608 10.1399 37.7545 10.1399C38.2565 10.1399 38.6892 10.2265 39.0526 10.3995C39.4204 10.5726 39.7211 10.8149 39.9548 11.1265C40.1884 11.4337 40.3615 11.7971 40.474 12.2169C40.5865 12.6322 40.6428 13.0866 40.6428 13.5798V14.1185H35.3985V13.1385H39.442V13.0476C39.4247 12.7361 39.3598 12.4332 39.2473 12.139C39.1392 11.8447 38.9661 11.6024 38.7281 11.412C38.4901 11.2217 38.1656 11.1265 37.7545 11.1265C37.4819 11.1265 37.231 11.1849 37.0016 11.3017C36.7723 11.4142 36.5754 11.583 36.411 11.808C36.2466 12.033 36.1189 12.3077 36.0281 12.6322C35.9372 12.9568 35.8918 13.331 35.8918 13.7551V14.0277C35.8918 14.3609 35.9372 14.6746 36.0281 14.9688C36.1233 15.2587 36.2596 15.514 36.437 15.7347C36.6187 15.9553 36.8372 16.1284 37.0925 16.2539C37.3521 16.3794 37.6464 16.4421 37.9752 16.4421C38.3992 16.4421 38.7584 16.3556 39.0526 16.1825C39.3468 16.0094 39.6043 15.7779 39.825 15.488L40.5519 16.0657C40.4005 16.295 40.2079 16.5135 39.9743 16.7212C39.7406 16.9289 39.4529 17.0976 39.111 17.2275C38.7735 17.3573 38.3733 17.4222 37.9103 17.4222ZM44.9849 10.2697V11.1914H41.188V10.2697H44.9849ZM42.4731 8.56275H43.6738V15.5529C43.6738 15.7909 43.7106 15.9705 43.7841 16.0916C43.8577 16.2128 43.9529 16.2928 44.0697 16.3318C44.1865 16.3707 44.312 16.3902 44.4461 16.3902C44.5457 16.3902 44.6495 16.3815 44.7577 16.3642C44.8702 16.3426 44.9546 16.3253 45.0108 16.3123L45.0173 17.2924C44.9221 17.3226 44.7966 17.3508 44.6409 17.3767C44.4894 17.407 44.3055 17.4222 44.0892 17.4222C43.7949 17.4222 43.5245 17.3638 43.2779 17.2469C43.0312 17.1301 42.8344 16.9354 42.6872 16.6628C42.5445 16.3859 42.4731 16.0137 42.4731 15.5464V8.56275ZM55.6032 16.2734V17.2924H50.8781V16.2734H55.6032ZM51.1248 7.84232V17.2924H49.8721V7.84232H51.1248ZM58.1604 10.2697V17.2924H56.9532V10.2697H58.1604ZM56.8623 8.40698C56.8623 8.21227 56.9207 8.04785 57.0375 7.91371C57.1587 7.77958 57.3361 7.71251 57.5698 7.71251C57.7991 7.71251 57.9743 7.77958 58.0955 7.91371C58.221 8.04785 58.2837 8.21227 58.2837 8.40698C58.2837 8.59304 58.221 8.75314 58.0955 8.88727C57.9743 9.01708 57.7991 9.08199 57.5698 9.08199C57.3361 9.08199 57.1587 9.01708 57.0375 8.88727C56.9207 8.75314 56.8623 8.59304 56.8623 8.40698ZM61.2888 11.769V17.2924H60.088V10.2697H61.2239L61.2888 11.769ZM61.0032 13.5149L60.5034 13.4955C60.5078 13.0152 60.5791 12.5717 60.7176 12.1649C60.8561 11.7539 61.0508 11.3969 61.3017 11.094C61.5527 10.7911 61.8513 10.5575 62.1974 10.393C62.5479 10.2243 62.9352 10.1399 63.3592 10.1399C63.7054 10.1399 64.0169 10.1875 64.2938 10.2827C64.5708 10.3736 64.8066 10.5207 65.0013 10.7241C65.2003 10.9274 65.3518 11.1914 65.4556 11.5159C65.5595 11.8361 65.6114 12.2277 65.6114 12.6907V17.2924H64.4042V12.6777C64.4042 12.3099 64.3501 12.0157 64.2419 11.795C64.1337 11.57 63.9758 11.4077 63.7681 11.3082C63.5604 11.2044 63.3051 11.1524 63.0022 11.1524C62.7037 11.1524 62.4311 11.2152 62.1844 11.3406C61.9421 11.4661 61.7323 11.6392 61.5549 11.8599C61.3818 12.0806 61.2455 12.3337 61.146 12.6193C61.0508 12.9005 61.0032 13.1991 61.0032 13.5149ZM68.6424 7.32308V17.2924H67.4352V7.32308H68.6424ZM72.9326 10.2697L69.8691 13.5474L68.1556 15.3258L68.0583 14.0472L69.285 12.5803L71.4657 10.2697H72.9326ZM71.8357 17.2924L69.3304 13.9433L69.9535 12.8724L73.2506 17.2924H71.8357Z" fill="#EDEDFC"/>
<defs>
<clipPath id="clip0_46_3670">
<rect width="18.8952" height="14.1714" fill="white" transform="translate(203.714 90.9333)"/>
</clipPath>
</defs>
</svg>
