<svg width="251" height="150" viewBox="0 0 251 150" fill="none" xmlns="http://www.w3.org/2000/svg">
<path d="M86.6924 78.6917C86.6924 102.546 67.3548 121.883 43.5007 121.883C19.6466 121.883 0.309082 102.546 0.309082 78.6917C0.309082 54.8376 19.6466 35.5 43.5007 35.5C67.3548 35.5 86.6924 54.8376 86.6924 78.6917Z" fill="#7071E3" fill-opacity="0.04"/>
<path d="M87.2841 78.6917C86.8896 78.6917 86.4952 78.6917 86.1007 78.6917C86.1122 83.1607 85.4256 87.6204 84.0546 91.8697C78.7426 109.044 61.5533 121.666 43.5007 121.44C20.7351 122.047 0.102283 101.544 0.604915 78.6917C-0.0043489 55.847 20.5691 35.1436 43.5007 35.6479C61.6743 35.3384 79.103 47.981 84.5611 65.3492C85.9682 69.6458 86.6842 74.1619 86.6924 78.6917C86.7039 74.1619 86.0076 69.6396 84.6173 65.3309C79.2307 47.9171 61.8029 35.1226 43.5007 35.3521C20.4193 34.7376 -0.496289 55.5232 0.0132487 78.6917C-0.602922 101.852 20.2534 122.838 43.5007 122.327C61.9239 122.64 79.591 109.825 85.1238 92.2169C86.5503 87.8609 87.2759 83.2822 87.2841 78.6917ZM86.1007 78.6917H87.2841H86.6924H86.1007Z" fill="#4C4DDC" fill-opacity="0.17"/>
<rect x="174.259" y="104.133" width="37.8667" height="37.8667" rx="18.9333" fill="#D4E2FF" fill-opacity="0.58"/>
<rect x="170.709" y="100.583" width="44.9667" height="44.9667" rx="22.4833" stroke="#EAF1FF" stroke-opacity="0.33" stroke-width="7.1"/>
<g filter="url(#filter0_d_46_3415)">
<path d="M185.082 120.724C185.082 118.705 185.082 117.695 185.475 116.924C185.82 116.246 186.372 115.694 187.05 115.349C187.821 114.956 188.831 114.956 190.849 114.956H195.536C197.554 114.956 198.564 114.956 199.335 115.349C200.013 115.694 200.565 116.246 200.91 116.924C201.303 117.695 201.303 118.705 201.303 120.724V125.41C201.303 127.429 201.303 128.438 200.91 129.209C200.565 129.887 200.013 130.439 199.335 130.784C198.564 131.177 197.554 131.177 195.536 131.177H190.849C188.831 131.177 187.821 131.177 187.05 130.784C186.372 130.439 185.82 129.887 185.475 129.209C185.082 128.438 185.082 127.429 185.082 125.41V120.724Z" fill="white"/>
<path d="M198.113 117.273H196.229V120.003H198.985V118.043C198.986 118.043 198.849 117.348 198.113 117.273Z" fill="#1967D2"/>
<path d="M196.23 128.847V128.854V128.86L198.986 126.131H198.961L196.23 128.847Z" fill="#1967D2"/>
<path d="M198.986 126.13V126.106L198.961 126.13H198.986Z" fill="#FBBC05"/>
<path d="M198.986 120.003H196.23V126.106H198.986V120.003Z" fill="#FBBC05"/>
<path d="M198.961 126.131H196.23V128.847L198.961 126.131Z" fill="#EA4335"/>
<path d="M196.23 126.13H198.961L198.986 126.106H196.23V126.13Z" fill="#EA4335"/>
<path d="M196.223 128.854H196.23V128.847L196.223 128.854Z" fill="#34A853"/>
<path d="M190.093 126.106V128.854H196.223L196.23 126.106H190.093Z" fill="#34A853"/>
<path d="M196.23 126.131V126.106L196.223 128.854L196.23 128.847V126.131Z" fill="#34A853"/>
<path d="M187.399 126.106V128.017C187.424 128.637 188.094 128.854 188.094 128.854H190.093V126.106H187.399Z" fill="#188038"/>
<path d="M190.093 120.003H196.23V117.273H188.172C188.172 117.273 187.449 117.348 187.399 118.117V126.106H190.093V120.003Z" fill="#4285F4"/>
<path d="M192.101 124.871C191.96 124.871 191.825 124.852 191.695 124.816C191.568 124.779 191.451 124.724 191.344 124.651C191.237 124.575 191.141 124.48 191.058 124.367C190.978 124.254 190.916 124.123 190.872 123.973L191.489 123.729C191.532 123.895 191.606 124.021 191.71 124.108C191.813 124.191 191.944 124.232 192.101 124.232C192.171 124.232 192.238 124.222 192.301 124.202C192.365 124.179 192.42 124.148 192.467 124.108C192.514 124.068 192.55 124.021 192.577 123.968C192.607 123.912 192.622 123.848 192.622 123.779C192.622 123.632 192.567 123.518 192.457 123.434C192.35 123.351 192.201 123.31 192.01 123.31H191.715V122.716H191.985C192.052 122.716 192.117 122.708 192.181 122.691C192.244 122.675 192.3 122.65 192.346 122.617C192.397 122.58 192.435 122.535 192.462 122.482C192.492 122.425 192.507 122.361 192.507 122.287C192.507 122.174 192.467 122.083 192.387 122.013C192.306 121.94 192.198 121.903 192.061 121.903C191.914 121.903 191.8 121.943 191.72 122.023C191.643 122.1 191.589 122.186 191.559 122.282L190.958 122.038C190.988 121.955 191.033 121.87 191.093 121.784C191.153 121.694 191.228 121.614 191.319 121.544C191.412 121.471 191.521 121.413 191.644 121.37C191.768 121.323 191.91 121.3 192.071 121.3C192.234 121.3 192.383 121.323 192.517 121.37C192.654 121.416 192.771 121.481 192.868 121.564C192.965 121.644 193.04 121.741 193.093 121.854C193.147 121.963 193.174 122.083 193.174 122.213C193.174 122.312 193.16 122.402 193.134 122.482C193.11 122.562 193.078 122.633 193.038 122.696C192.998 122.76 192.951 122.814 192.898 122.861C192.848 122.904 192.796 122.939 192.743 122.966V123.006C192.903 123.069 193.035 123.17 193.139 123.31C193.246 123.449 193.299 123.626 193.299 123.838C193.299 123.988 193.271 124.126 193.214 124.252C193.157 124.375 193.075 124.483 192.968 124.576C192.865 124.67 192.739 124.741 192.592 124.791C192.445 124.844 192.281 124.871 192.101 124.871Z" fill="#4285F4"/>
<path d="M194.496 124.791V122.148L193.89 122.402L193.649 121.849L194.657 121.38H195.153V124.791H194.496Z" fill="#4285F4"/>
</g>
<g filter="url(#filter1_dd_46_3415)">
<path d="M152.959 4.81785C152.959 2.15702 155.116 0 157.777 0L238.074 0C240.735 0 242.892 2.15703 242.892 4.81786V50.5875C242.892 53.2483 240.735 55.4054 238.074 55.4054H157.777C155.116 55.4054 152.959 53.2483 152.959 50.5875V4.81785Z" fill="#7071E3" fill-opacity="0.31" shape-rendering="crispEdges"/>
<path d="M157.776 0.201172L238.074 0.201172C240.624 0.201172 242.691 2.26764 242.691 4.81738V50.5879C242.691 53.1377 240.624 55.2051 238.074 55.2051H157.776C155.227 55.2048 153.16 53.1375 153.16 50.5879V4.81738C153.16 2.2678 155.227 0.201428 157.776 0.201172Z" stroke="#7071E3" stroke-width="0.401488" shape-rendering="crispEdges"/>
<path d="M159.071 34.0004C159.071 31.3396 161.228 29.1825 163.889 29.1825H194.329C196.99 29.1825 199.147 31.3396 199.147 34.0004C199.147 36.6612 196.99 38.8182 194.329 38.8182H163.889C161.228 38.8182 159.071 36.6612 159.071 34.0004Z" fill="#ECEAF5"/>
<path d="M162.492 32.5899V32.1424H165.158V32.5899H164.083V35.5879H163.565V32.5899H162.492ZM166.421 35.64C166.179 35.64 165.967 35.5845 165.787 35.4735C165.606 35.3624 165.466 35.2071 165.366 35.0074C165.266 34.8078 165.216 34.5745 165.216 34.3076C165.216 34.0395 165.266 33.8051 165.366 33.6043C165.466 33.4036 165.606 33.2477 165.787 33.1366C165.967 33.0256 166.179 32.9701 166.421 32.9701C166.663 32.9701 166.875 33.0256 167.055 33.1366C167.236 33.2477 167.376 33.4036 167.476 33.6043C167.576 33.8051 167.626 34.0395 167.626 34.3076C167.626 34.5745 167.576 34.8078 167.476 35.0074C167.376 35.2071 167.236 35.3624 167.055 35.4735C166.875 35.5845 166.663 35.64 166.421 35.64ZM166.423 35.2177C166.58 35.2177 166.71 35.1762 166.813 35.0932C166.916 35.0102 166.992 34.8998 167.042 34.7618C167.092 34.6239 167.117 34.4719 167.117 34.3059C167.117 34.141 167.092 33.9896 167.042 33.8517C166.992 33.7126 166.916 33.601 166.813 33.5169C166.71 33.4327 166.58 33.3907 166.423 33.3907C166.265 33.3907 166.133 33.4327 166.029 33.5169C165.926 33.601 165.849 33.7126 165.799 33.8517C165.749 33.9896 165.724 34.141 165.724 34.3059C165.724 34.4719 165.749 34.6239 165.799 34.7618C165.849 34.8998 165.926 35.0102 166.029 35.0932C166.133 35.1762 166.265 35.2177 166.423 35.2177ZM168.187 36.5569V33.0037H168.678V33.4226H168.72C168.75 33.3688 168.792 33.3066 168.847 33.2359C168.902 33.1652 168.978 33.1036 169.075 33.0508C169.173 32.997 169.302 32.9701 169.462 32.9701C169.671 32.9701 169.857 33.0228 170.021 33.1282C170.185 33.2337 170.313 33.3856 170.406 33.5842C170.5 33.7827 170.547 34.0216 170.547 34.3008C170.547 34.5801 170.501 34.8196 170.408 35.0192C170.315 35.2177 170.187 35.3708 170.024 35.4785C169.862 35.5851 169.676 35.6383 169.467 35.6383C169.31 35.6383 169.182 35.612 169.082 35.5593C168.983 35.5065 168.906 35.4449 168.85 35.3742C168.794 35.3035 168.751 35.2407 168.72 35.1858H168.69V36.5569H168.187ZM168.68 34.2958C168.68 34.4775 168.706 34.6368 168.759 34.7736C168.812 34.9104 168.888 35.0175 168.988 35.0949C169.088 35.1712 169.21 35.2093 169.355 35.2093C169.505 35.2093 169.631 35.1695 169.731 35.0899C169.832 35.0091 169.909 34.8998 169.96 34.7618C170.013 34.6239 170.039 34.4685 170.039 34.2958C170.039 34.1253 170.014 33.9722 169.962 33.8365C169.911 33.7008 169.835 33.5937 169.733 33.5152C169.632 33.4367 169.506 33.3974 169.355 33.3974C169.209 33.3974 169.085 33.435 168.985 33.5101C168.885 33.5853 168.809 33.6901 168.757 33.8247C168.706 33.9593 168.68 34.1163 168.68 34.2958ZM172.405 35.5879V32.1424H173.633C173.901 32.1424 174.123 32.1912 174.3 32.2887C174.476 32.3863 174.607 32.5198 174.695 32.6891C174.782 32.8574 174.826 33.0469 174.826 33.2578C174.826 33.4698 174.782 33.6604 174.693 33.8298C174.606 33.998 174.473 34.1315 174.296 34.2302C174.12 34.3278 173.899 34.3766 173.632 34.3766H172.787V33.9358H173.585C173.754 33.9358 173.891 33.9066 173.997 33.8483C174.102 33.7888 174.18 33.7081 174.229 33.606C174.278 33.504 174.303 33.3879 174.303 33.2578C174.303 33.1277 174.278 33.0121 174.229 32.9112C174.18 32.8103 174.102 32.7312 173.995 32.674C173.89 32.6168 173.751 32.5882 173.578 32.5882H172.925V35.5879H172.405ZM175.395 35.5879V33.0037H175.881V33.4142H175.908C175.955 33.2752 176.038 33.1658 176.157 33.0862C176.277 33.0054 176.413 32.965 176.564 32.965C176.596 32.965 176.633 32.9662 176.675 32.9684C176.719 32.9707 176.753 32.9735 176.778 32.9768V33.458C176.758 33.4524 176.722 33.4462 176.67 33.4395C176.619 33.4316 176.567 33.4277 176.516 33.4277C176.397 33.4277 176.291 33.4529 176.198 33.5034C176.106 33.5528 176.033 33.6217 175.979 33.7103C175.925 33.7978 175.898 33.8976 175.898 34.0098V35.5879H175.395ZM178.235 35.64C177.98 35.64 177.761 35.5856 177.577 35.4768C177.394 35.3669 177.253 35.2127 177.153 35.0142C177.054 34.8145 177.005 34.5807 177.005 34.3126C177.005 34.0479 177.054 33.8146 177.153 33.6128C177.253 33.4109 177.392 33.2533 177.57 33.14C177.75 33.0267 177.959 32.9701 178.199 32.9701C178.345 32.9701 178.486 32.9942 178.623 33.0424C178.76 33.0907 178.883 33.1664 178.992 33.2696C179.1 33.3727 179.186 33.5068 179.249 33.6716C179.312 33.8354 179.343 34.0345 179.343 34.2689V34.4472H177.289V34.0704H178.85C178.85 33.938 178.823 33.8208 178.77 33.7187C178.716 33.6156 178.64 33.5342 178.542 33.4748C178.446 33.4154 178.333 33.3856 178.203 33.3856C178.061 33.3856 177.938 33.4204 177.833 33.4899C177.728 33.5584 177.647 33.6481 177.59 33.7591C177.534 33.869 177.506 33.9885 177.506 34.1175V34.4119C177.506 34.5846 177.536 34.7315 177.597 34.8527C177.659 34.9738 177.744 35.0663 177.854 35.1303C177.964 35.1931 178.093 35.2245 178.24 35.2245C178.335 35.2245 178.422 35.211 178.5 35.1841C178.579 35.1561 178.647 35.1146 178.704 35.0596C178.761 35.0046 178.805 34.9368 178.835 34.856L179.311 34.9418C179.273 35.082 179.205 35.2048 179.106 35.3103C179.009 35.4146 178.886 35.4959 178.738 35.5542C178.591 35.6114 178.423 35.64 178.235 35.64ZM181.131 33.0037V33.4075H179.671V33.0037H181.131ZM180.071 35.5879V32.7043C180.071 32.5428 180.107 32.4087 180.177 32.3022C180.248 32.1945 180.342 32.1143 180.458 32.0616C180.575 32.0078 180.702 31.9809 180.839 31.9809C180.939 31.9809 181.026 31.9893 181.098 32.0061C181.169 32.0218 181.223 32.0364 181.257 32.0498L181.14 32.457C181.116 32.4502 181.086 32.4424 181.049 32.4334C181.012 32.4233 180.967 32.4183 180.914 32.4183C180.792 32.4183 180.704 32.4486 180.652 32.5091C180.6 32.5697 180.574 32.6572 180.574 32.7716V35.5879H180.071ZM182.637 35.64C182.395 35.64 182.183 35.5845 182.003 35.4735C181.822 35.3624 181.682 35.2071 181.582 35.0074C181.482 34.8078 181.432 34.5745 181.432 34.3076C181.432 34.0395 181.482 33.8051 181.582 33.6043C181.682 33.4036 181.822 33.2477 182.003 33.1366C182.183 33.0256 182.395 32.9701 182.637 32.9701C182.879 32.9701 183.091 33.0256 183.271 33.1366C183.452 33.2477 183.592 33.4036 183.692 33.6043C183.792 33.8051 183.842 34.0395 183.842 34.3076C183.842 34.5745 183.792 34.8078 183.692 35.0074C183.592 35.2071 183.452 35.3624 183.271 35.4735C183.091 35.5845 182.879 35.64 182.637 35.64ZM182.639 35.2177C182.796 35.2177 182.926 35.1762 183.029 35.0932C183.132 35.0102 183.208 34.8998 183.258 34.7618C183.308 34.6239 183.333 34.4719 183.333 34.3059C183.333 34.141 183.308 33.9896 183.258 33.8517C183.208 33.7126 183.132 33.601 183.029 33.5169C182.926 33.4327 182.796 33.3907 182.639 33.3907C182.48 33.3907 182.349 33.4327 182.245 33.5169C182.142 33.601 182.065 33.7126 182.014 33.8517C181.965 33.9896 181.94 34.141 181.94 34.3059C181.94 34.4719 181.965 34.6239 182.014 34.7618C182.065 34.8998 182.142 35.0102 182.245 35.0932C182.349 35.1762 182.48 35.2177 182.639 35.2177ZM184.403 35.5879V33.0037H184.889V33.4142H184.916C184.963 33.2752 185.046 33.1658 185.165 33.0862C185.285 33.0054 185.421 32.965 185.572 32.965C185.604 32.965 185.641 32.9662 185.683 32.9684C185.727 32.9707 185.761 32.9735 185.786 32.9768V33.458C185.766 33.4524 185.73 33.4462 185.678 33.4395C185.627 33.4316 185.575 33.4277 185.523 33.4277C185.405 33.4277 185.299 33.4529 185.206 33.5034C185.114 33.5528 185.041 33.6217 184.987 33.7103C184.933 33.7978 184.906 33.8976 184.906 34.0098V35.5879H184.403ZM186.221 35.5879V33.0037H186.704V33.4243H186.736C186.79 33.2819 186.878 33.1709 187 33.0912C187.122 33.0105 187.269 32.9701 187.439 32.9701C187.612 32.9701 187.757 33.0105 187.873 33.0912C187.991 33.172 188.078 33.283 188.134 33.4243H188.161C188.223 33.2864 188.321 33.1765 188.455 33.0946C188.59 33.0116 188.75 32.9701 188.937 32.9701C189.171 32.9701 189.362 33.0436 189.51 33.1905C189.659 33.3374 189.734 33.5589 189.734 33.855V35.5879H189.231V33.9021C189.231 33.7272 189.183 33.6004 189.088 33.5219C188.993 33.4434 188.879 33.4041 188.746 33.4041C188.583 33.4041 188.455 33.4546 188.365 33.5556C188.274 33.6554 188.228 33.7838 188.228 33.9408V35.5879H187.727V33.8702C187.727 33.73 187.683 33.6172 187.596 33.532C187.508 33.4468 187.394 33.4041 187.254 33.4041C187.159 33.4041 187.071 33.4294 186.99 33.4798C186.91 33.5292 186.846 33.5982 186.797 33.6868C186.748 33.7754 186.724 33.878 186.724 33.9947V35.5879H186.221ZM191.522 35.64C191.267 35.64 191.048 35.5856 190.864 35.4768C190.681 35.3669 190.54 35.2127 190.44 35.0142C190.342 34.8145 190.292 34.5807 190.292 34.3126C190.292 34.0479 190.342 33.8146 190.44 33.6128C190.54 33.4109 190.679 33.2533 190.857 33.14C191.037 33.0267 191.247 32.9701 191.487 32.9701C191.632 32.9701 191.774 32.9942 191.911 33.0424C192.047 33.0907 192.17 33.1664 192.279 33.2696C192.388 33.3727 192.474 33.5068 192.536 33.6716C192.599 33.8354 192.631 34.0345 192.631 34.2689V34.4472H190.576V34.0704H192.138C192.138 33.938 192.111 33.8208 192.057 33.7187C192.003 33.6156 191.927 33.5342 191.83 33.4748C191.733 33.4154 191.62 33.3856 191.49 33.3856C191.349 33.3856 191.225 33.4204 191.12 33.4899C191.016 33.5584 190.935 33.6481 190.878 33.7591C190.822 33.869 190.794 33.9885 190.794 34.1175V34.4119C190.794 34.5846 190.824 34.7315 190.884 34.8527C190.946 34.9738 191.032 35.0663 191.142 35.1303C191.252 35.1931 191.38 35.2245 191.527 35.2245C191.622 35.2245 191.709 35.211 191.788 35.1841C191.866 35.1561 191.934 35.1146 191.991 35.0596C192.049 35.0046 192.092 34.9368 192.123 34.856L192.599 34.9418C192.561 35.082 192.492 35.2048 192.393 35.3103C192.296 35.4146 192.173 35.4959 192.025 35.5542C191.878 35.6114 191.71 35.64 191.522 35.64ZM193.189 35.5879V33.0037H193.675V33.4142H193.702C193.749 33.2752 193.832 33.1658 193.951 33.0862C194.071 33.0054 194.207 32.965 194.358 32.965C194.389 32.965 194.426 32.9662 194.469 32.9684C194.513 32.9707 194.547 32.9735 194.572 32.9768V33.458C194.552 33.4524 194.516 33.4462 194.464 33.4395C194.412 33.4316 194.361 33.4277 194.309 33.4277C194.19 33.4277 194.084 33.4529 193.991 33.5034C193.899 33.5528 193.826 33.6217 193.773 33.7103C193.719 33.7978 193.692 33.8976 193.692 34.0098V35.5879H193.189ZM196.943 33.6346L196.488 33.7154C196.468 33.6571 196.438 33.6015 196.397 33.5488C196.356 33.4961 196.301 33.4529 196.232 33.4193C196.162 33.3856 196.075 33.3688 195.971 33.3688C195.829 33.3688 195.71 33.4008 195.614 33.4647C195.519 33.5275 195.471 33.6088 195.471 33.7087C195.471 33.795 195.503 33.8646 195.567 33.9173C195.631 33.97 195.734 34.0132 195.877 34.0468L196.287 34.141C196.525 34.196 196.702 34.2807 196.819 34.3951C196.936 34.5095 196.994 34.6581 196.994 34.8409C196.994 34.9957 196.949 35.1336 196.859 35.2548C196.771 35.3748 196.647 35.469 196.488 35.5374C196.329 35.6058 196.146 35.64 195.937 35.64C195.648 35.64 195.412 35.5783 195.229 35.455C195.046 35.3305 194.934 35.1538 194.893 34.925L195.379 34.851C195.409 34.9777 195.471 35.0736 195.566 35.1387C195.66 35.2026 195.783 35.2346 195.934 35.2346C196.099 35.2346 196.231 35.2004 196.329 35.1319C196.428 35.0624 196.477 34.9777 196.477 34.8779C196.477 34.7971 196.447 34.7293 196.387 34.6743C196.327 34.6194 196.236 34.5779 196.112 34.5498L195.675 34.4539C195.434 34.399 195.255 34.3115 195.14 34.1915C195.026 34.0715 194.968 33.9195 194.968 33.7356C194.968 33.583 195.011 33.4496 195.096 33.3352C195.181 33.2208 195.299 33.1316 195.449 33.0677C195.6 33.0026 195.772 32.9701 195.966 32.9701C196.245 32.9701 196.465 33.0307 196.625 33.1518C196.786 33.2718 196.892 33.4327 196.943 33.6346Z" fill="#3E2D9B"/>
<path d="M191.416 22.7588C191.416 20.098 193.573 17.941 196.234 17.941H208.969C211.63 17.941 213.787 20.098 213.787 22.7588C213.787 25.4197 211.63 27.5767 208.969 27.5767H196.234C193.573 27.5767 191.416 25.4197 191.416 22.7588Z" fill="#ECEAF5"/>
<path d="M196.902 22.393L196.446 22.4737C196.427 22.4154 196.397 22.3599 196.355 22.3072C196.315 22.2545 196.26 22.2113 196.191 22.1776C196.121 22.144 196.034 22.1272 195.93 22.1272C195.787 22.1272 195.669 22.1591 195.573 22.2231C195.478 22.2859 195.43 22.3672 195.43 22.467C195.43 22.5534 195.462 22.6229 195.526 22.6756C195.59 22.7283 195.693 22.7715 195.836 22.8052L196.246 22.8994C196.484 22.9543 196.661 23.039 196.778 23.1534C196.894 23.2678 196.953 23.4164 196.953 23.5992C196.953 23.754 196.908 23.892 196.818 24.0131C196.73 24.1331 196.606 24.2273 196.446 24.2958C196.288 24.3642 196.105 24.3984 195.896 24.3984C195.607 24.3984 195.371 24.3367 195.188 24.2133C195.005 24.0888 194.893 23.9122 194.851 23.6834L195.338 23.6093C195.368 23.7361 195.43 23.832 195.524 23.897C195.619 23.961 195.741 23.9929 195.893 23.9929C196.058 23.9929 196.189 23.9587 196.288 23.8903C196.387 23.8208 196.436 23.7361 196.436 23.6363C196.436 23.5555 196.406 23.4877 196.345 23.4327C196.286 23.3777 196.195 23.3362 196.071 23.3082L195.634 23.2123C195.393 23.1573 195.214 23.0699 195.099 22.9499C194.984 22.8298 194.927 22.6779 194.927 22.4939C194.927 22.3414 194.97 22.2079 195.055 22.0935C195.14 21.9791 195.258 21.89 195.408 21.826C195.559 21.761 195.731 21.7285 195.925 21.7285C196.204 21.7285 196.424 21.789 196.584 21.9101C196.745 22.0302 196.851 22.1911 196.902 22.393ZM199.143 23.2746V21.7621H199.647V24.3462H199.153V23.8987H199.126C199.066 24.0367 198.971 24.1516 198.84 24.2436C198.71 24.3344 198.548 24.3799 198.354 24.3799C198.188 24.3799 198.041 24.3434 197.913 24.2705C197.786 24.1965 197.686 24.0871 197.613 23.9425C197.542 23.7978 197.506 23.6189 197.506 23.4058V21.7621H198.009V23.3452C198.009 23.5213 198.058 23.6615 198.155 23.7658C198.253 23.8701 198.38 23.9223 198.535 23.9223C198.63 23.9223 198.723 23.8987 198.816 23.8516C198.911 23.8045 198.989 23.7333 199.05 23.6379C199.113 23.5426 199.144 23.4215 199.143 23.2746ZM200.364 24.3462V20.9007H200.867V22.181H200.897C200.926 22.1272 200.968 22.0649 201.023 21.9943C201.078 21.9236 201.154 21.8619 201.252 21.8092C201.35 21.7554 201.479 21.7285 201.639 21.7285C201.848 21.7285 202.034 21.7812 202.198 21.8866C202.361 21.992 202.49 22.144 202.583 22.3425C202.677 22.541 202.724 22.7799 202.724 23.0592C202.724 23.3385 202.678 23.5779 202.584 23.7776C202.491 23.9761 202.364 24.1292 202.201 24.2369C202.038 24.3434 201.853 24.3967 201.644 24.3967C201.487 24.3967 201.359 24.3703 201.259 24.3176C201.16 24.2649 201.083 24.2032 201.027 24.1326C200.971 24.0619 200.927 23.9991 200.897 23.9441H200.855V24.3462H200.364ZM200.857 23.0542C200.857 23.2359 200.883 23.3951 200.936 23.532C200.988 23.6688 201.065 23.7759 201.165 23.8533C201.264 23.9296 201.387 23.9677 201.531 23.9677C201.682 23.9677 201.807 23.9279 201.908 23.8482C202.009 23.7675 202.085 23.6581 202.137 23.5202C202.19 23.3822 202.216 23.2269 202.216 23.0542C202.216 22.8837 202.19 22.7306 202.139 22.5949C202.088 22.4592 202.012 22.3521 201.91 22.2735C201.809 22.195 201.683 22.1558 201.531 22.1558C201.385 22.1558 201.262 22.1933 201.161 22.2685C201.061 22.3436 200.986 22.4485 200.934 22.5831C200.882 22.7177 200.857 22.8747 200.857 23.0542ZM204.495 21.7621V22.1659H203.084V21.7621H204.495ZM203.462 21.143H203.965V23.5875C203.965 23.685 203.98 23.7585 204.009 23.8079C204.038 23.8561 204.076 23.8892 204.122 23.9071C204.169 23.9239 204.22 23.9324 204.275 23.9324C204.315 23.9324 204.351 23.9296 204.381 23.9239C204.411 23.9183 204.435 23.9139 204.451 23.9105L204.542 24.326C204.513 24.3372 204.472 24.3485 204.418 24.3597C204.364 24.372 204.297 24.3787 204.216 24.3799C204.084 24.3821 203.96 24.3586 203.846 24.3092C203.731 24.2599 203.639 24.1836 203.568 24.0804C203.498 23.9772 203.462 23.8477 203.462 23.6918V21.143ZM205.804 24.4034C205.64 24.4034 205.492 24.3731 205.36 24.3126C205.227 24.2509 205.122 24.1617 205.045 24.0451C204.969 23.9284 204.931 23.7854 204.931 23.6161C204.931 23.4703 204.959 23.3503 205.015 23.256C205.071 23.1618 205.146 23.0872 205.242 23.0323C205.337 22.9773 205.444 22.9358 205.561 22.9078C205.679 22.8798 205.799 22.8584 205.921 22.8439C206.076 22.8259 206.202 22.8113 206.298 22.8001C206.395 22.7878 206.465 22.7682 206.509 22.7412C206.552 22.7143 206.574 22.6706 206.574 22.61V22.5982C206.574 22.4513 206.533 22.3375 206.45 22.2567C206.368 22.176 206.246 22.1356 206.083 22.1356C205.914 22.1356 205.78 22.1732 205.683 22.2483C205.586 22.3223 205.519 22.4048 205.482 22.4956L205.01 22.3879C205.066 22.2309 205.148 22.1042 205.255 22.0077C205.364 21.9101 205.489 21.8395 205.63 21.7957C205.772 21.7509 205.92 21.7285 206.076 21.7285C206.179 21.7285 206.289 21.7408 206.404 21.7655C206.521 21.789 206.63 21.8328 206.731 21.8967C206.833 21.9606 206.916 22.052 206.981 22.1709C207.046 22.2887 207.079 22.4418 207.079 22.6302V24.3462H206.588V23.9929H206.567C206.535 24.058 206.486 24.1219 206.421 24.1847C206.356 24.2475 206.273 24.2997 206.17 24.3412C206.068 24.3827 205.946 24.4034 205.804 24.4034ZM205.913 23.9997C206.052 23.9997 206.171 23.9722 206.27 23.9172C206.37 23.8623 206.445 23.7905 206.497 23.7019C206.55 23.6121 206.576 23.5163 206.576 23.4142V23.0811C206.558 23.099 206.523 23.1158 206.472 23.1315C206.421 23.1461 206.363 23.159 206.298 23.1702C206.233 23.1803 206.17 23.1899 206.108 23.1988C206.047 23.2067 205.995 23.2134 205.953 23.219C205.856 23.2314 205.767 23.2521 205.686 23.2813C205.606 23.3104 205.542 23.3525 205.494 23.4075C205.447 23.4613 205.423 23.5331 205.423 23.6228C205.423 23.7473 205.469 23.8415 205.561 23.9054C205.653 23.9682 205.771 23.9997 205.913 23.9997ZM209.685 22.393L209.229 22.4737C209.21 22.4154 209.18 22.3599 209.139 22.3072C209.098 22.2545 209.043 22.2113 208.974 22.1776C208.904 22.144 208.817 22.1272 208.713 22.1272C208.57 22.1272 208.452 22.1591 208.356 22.2231C208.261 22.2859 208.213 22.3672 208.213 22.467C208.213 22.5534 208.245 22.6229 208.309 22.6756C208.373 22.7283 208.476 22.7715 208.619 22.8052L209.029 22.8994C209.267 22.9543 209.444 23.039 209.561 23.1534C209.677 23.2678 209.736 23.4164 209.736 23.5992C209.736 23.754 209.691 23.892 209.601 24.0131C209.513 24.1331 209.389 24.2273 209.229 24.2958C209.071 24.3642 208.888 24.3984 208.679 24.3984C208.39 24.3984 208.154 24.3367 207.971 24.2133C207.788 24.0888 207.676 23.9122 207.635 23.6834L208.121 23.6093C208.151 23.7361 208.213 23.832 208.307 23.897C208.402 23.961 208.524 23.9929 208.676 23.9929C208.841 23.9929 208.973 23.9587 209.071 23.8903C209.17 23.8208 209.219 23.7361 209.219 23.6363C209.219 23.5555 209.189 23.4877 209.128 23.4327C209.069 23.3777 208.978 23.3362 208.854 23.3082L208.417 23.2123C208.176 23.1573 207.997 23.0699 207.882 22.9499C207.767 22.8298 207.71 22.6779 207.71 22.4939C207.71 22.3414 207.753 22.2079 207.838 22.0935C207.923 21.9791 208.041 21.89 208.191 21.826C208.342 21.761 208.514 21.7285 208.708 21.7285C208.987 21.7285 209.207 21.789 209.367 21.9101C209.528 22.0302 209.634 22.1911 209.685 22.393ZM210.752 23.4697L210.748 22.8556H210.836L211.865 21.7621H212.468L211.293 23.0071H211.214L210.752 23.4697ZM210.289 24.3462V20.9007H210.792V24.3462H210.289ZM211.921 24.3462L210.995 23.1181L211.342 22.7665L212.538 24.3462H211.921Z" fill="#3E2D9B"/>
<path d="M159.072 22.7588C159.072 20.098 161.229 17.9409 163.889 17.9409H184.996C187.656 17.9409 189.813 20.098 189.813 22.7588C189.813 25.4196 187.656 27.5767 184.996 27.5767H163.889C161.229 27.5767 159.072 25.4196 159.072 22.7588Z" fill="#ECEAF5"/>
<path d="M162.492 21.3482V20.9007H165.159V21.3482H164.084V24.3462H163.565V21.3482H162.492ZM166.108 24.4034C165.944 24.4034 165.796 24.3731 165.664 24.3125C165.531 24.2509 165.427 24.1617 165.349 24.045C165.273 23.9284 165.235 23.7854 165.235 23.616C165.235 23.4702 165.263 23.3502 165.319 23.256C165.375 23.1618 165.451 23.0872 165.546 23.0323C165.641 22.9773 165.748 22.9358 165.866 22.9078C165.983 22.8797 166.103 22.8584 166.226 22.8438C166.38 22.8259 166.506 22.8113 166.603 22.8001C166.699 22.7878 166.769 22.7681 166.813 22.7412C166.857 22.7143 166.878 22.6705 166.878 22.61V22.5982C166.878 22.4513 166.837 22.3374 166.754 22.2567C166.672 22.1759 166.55 22.1356 166.387 22.1356C166.218 22.1356 166.084 22.1731 165.987 22.2483C165.89 22.3223 165.824 22.4047 165.787 22.4956L165.314 22.3879C165.37 22.2309 165.452 22.1042 165.559 22.0077C165.668 21.9101 165.793 21.8395 165.935 21.7957C166.076 21.7509 166.225 21.7284 166.38 21.7284C166.484 21.7284 166.593 21.7408 166.709 21.7654C166.825 21.789 166.934 21.8327 167.035 21.8967C167.137 21.9606 167.221 22.052 167.286 22.1709C167.351 22.2887 167.383 22.4417 167.383 22.6302V24.3462H166.892V23.9929H166.872C166.839 24.0579 166.79 24.1219 166.725 24.1847C166.66 24.2475 166.577 24.2996 166.475 24.3411C166.373 24.3826 166.25 24.4034 166.108 24.4034ZM166.217 23.9996C166.356 23.9996 166.475 23.9721 166.574 23.9172C166.674 23.8622 166.749 23.7904 166.801 23.7018C166.854 23.6121 166.88 23.5162 166.88 23.4142V23.081C166.862 23.099 166.827 23.1158 166.776 23.1315C166.725 23.1461 166.668 23.159 166.603 23.1702C166.537 23.1803 166.474 23.1898 166.412 23.1988C166.351 23.2067 166.299 23.2134 166.258 23.219C166.16 23.2313 166.071 23.2521 165.99 23.2812C165.911 23.3104 165.847 23.3525 165.798 23.4074C165.751 23.4613 165.728 23.533 165.728 23.6228C165.728 23.7473 165.774 23.8415 165.866 23.9054C165.958 23.9682 166.075 23.9996 166.217 23.9996ZM169.99 22.393L169.534 22.4737C169.515 22.4154 169.484 22.3599 169.443 22.3072C169.402 22.2544 169.347 22.2113 169.278 22.1776C169.208 22.144 169.121 22.1271 169.017 22.1271C168.875 22.1271 168.756 22.1591 168.66 22.223C168.565 22.2858 168.517 22.3672 168.517 22.467C168.517 22.5533 168.549 22.6229 168.613 22.6756C168.677 22.7283 168.78 22.7715 168.923 22.8051L169.333 22.8994C169.571 22.9543 169.748 23.039 169.865 23.1534C169.982 23.2678 170.04 23.4164 170.04 23.5992C170.04 23.754 169.995 23.892 169.905 24.0131C169.817 24.1331 169.693 24.2273 169.534 24.2957C169.375 24.3641 169.192 24.3983 168.983 24.3983C168.694 24.3983 168.458 24.3367 168.275 24.2133C168.092 24.0888 167.98 23.9121 167.939 23.6833L168.425 23.6093C168.455 23.7361 168.517 23.8319 168.612 23.897C168.706 23.9609 168.829 23.9929 168.98 23.9929C169.145 23.9929 169.277 23.9587 169.375 23.8903C169.474 23.8207 169.524 23.7361 169.524 23.6362C169.524 23.5555 169.493 23.4876 169.433 23.4327C169.373 23.3777 169.282 23.3362 169.158 23.3082L168.721 23.2123C168.48 23.1573 168.302 23.0698 168.186 22.9498C168.072 22.8298 168.014 22.6778 168.014 22.4939C168.014 22.3414 168.057 22.2079 168.142 22.0935C168.228 21.9791 168.345 21.8899 168.496 21.826C168.646 21.7609 168.818 21.7284 169.012 21.7284C169.291 21.7284 169.511 21.789 169.672 21.9101C169.832 22.0301 169.938 22.1911 169.99 22.393ZM171.056 23.4697L171.052 22.8556H171.14L172.169 21.7621H172.772L171.597 23.007H171.518L171.056 23.4697ZM170.593 24.3462V20.9007H171.096V24.3462H170.593ZM172.225 24.3462L171.3 23.1181L171.646 22.7664L172.842 24.3462H172.225ZM174.987 20.9007V24.3462H174.484V20.9007H174.987ZM175.664 24.3462V21.7621H176.167V24.3462H175.664ZM175.918 21.3633C175.83 21.3633 175.755 21.3342 175.692 21.2759C175.631 21.2164 175.6 21.1458 175.6 21.0639C175.6 20.9809 175.631 20.9102 175.692 20.8519C175.755 20.7925 175.83 20.7627 175.918 20.7627C176.005 20.7627 176.08 20.7925 176.142 20.8519C176.204 20.9102 176.236 20.9809 176.236 21.0639C176.236 21.1458 176.204 21.2164 176.142 21.2759C176.08 21.3342 176.005 21.3633 175.918 21.3633ZM178.78 22.393L178.324 22.4737C178.305 22.4154 178.275 22.3599 178.233 22.3072C178.193 22.2544 178.138 22.2113 178.068 22.1776C177.999 22.144 177.912 22.1271 177.808 22.1271C177.665 22.1271 177.546 22.1591 177.451 22.223C177.356 22.2858 177.308 22.3672 177.308 22.467C177.308 22.5533 177.34 22.6229 177.404 22.6756C177.468 22.7283 177.571 22.7715 177.713 22.8051L178.124 22.8994C178.362 22.9543 178.539 23.039 178.655 23.1534C178.772 23.2678 178.83 23.4164 178.83 23.5992C178.83 23.754 178.786 23.892 178.696 24.0131C178.607 24.1331 178.483 24.2273 178.324 24.2957C178.166 24.3641 177.983 24.3983 177.774 24.3983C177.485 24.3983 177.248 24.3367 177.066 24.2133C176.883 24.0888 176.771 23.9121 176.729 23.6833L177.215 23.6093C177.246 23.7361 177.308 23.8319 177.402 23.897C177.496 23.9609 177.619 23.9929 177.771 23.9929C177.935 23.9929 178.067 23.9587 178.166 23.8903C178.265 23.8207 178.314 23.7361 178.314 23.6362C178.314 23.5555 178.284 23.4876 178.223 23.4327C178.164 23.3777 178.072 23.3362 177.949 23.3082L177.511 23.2123C177.27 23.1573 177.092 23.0698 176.976 22.9498C176.862 22.8298 176.805 22.6778 176.805 22.4939C176.805 22.3414 176.847 22.2079 176.933 22.0935C177.018 21.9791 177.136 21.8899 177.286 21.826C177.436 21.7609 177.608 21.7284 177.802 21.7284C178.082 21.7284 178.302 21.789 178.462 21.9101C178.622 22.0301 178.728 22.1911 178.78 22.393ZM180.59 21.7621V22.1658H179.178V21.7621H180.59ZM179.557 21.143H180.06V23.5874C180.06 23.685 180.074 23.7585 180.104 23.8078C180.133 23.8561 180.17 23.8891 180.216 23.9071C180.263 23.9239 180.314 23.9323 180.369 23.9323C180.41 23.9323 180.445 23.9295 180.475 23.9239C180.506 23.9183 180.529 23.9138 180.546 23.9105L180.637 24.326C180.608 24.3372 180.566 24.3484 180.512 24.3597C180.459 24.372 180.391 24.3787 180.31 24.3798C180.178 24.3821 180.055 24.3585 179.94 24.3092C179.826 24.2598 179.733 24.1836 179.663 24.0804C179.592 23.9772 179.557 23.8476 179.557 23.6917V21.143Z" fill="#3E2D9B"/>
<path d="M212.368 12.184V9.88799H212.757V12.184H212.368ZM211.415 11.2308V10.8412H213.711V11.2308H211.415ZM214.936 11.4535L214.929 10.9456H215.012L216.181 9.7558H216.689L215.444 11.0151H215.409L214.936 11.4535ZM214.553 12.4275V8.86523H214.963V12.4275H214.553ZM216.251 12.4275L215.207 11.1056L215.499 10.8203L216.772 12.4275H216.251ZM218.227 12.4832C217.97 12.4832 217.748 12.4264 217.561 12.3127C217.376 12.1979 217.233 12.0379 217.132 11.8326C217.032 11.6262 216.982 11.3862 216.982 11.1125C216.982 10.8389 217.032 10.5977 217.132 10.3889C217.233 10.1791 217.373 10.0156 217.553 9.89843C217.733 9.78015 217.945 9.72101 218.186 9.72101C218.325 9.72101 218.462 9.7442 218.598 9.79059C218.734 9.83697 218.857 9.91235 218.968 10.0167C219.08 10.1199 219.168 10.2567 219.235 10.4272C219.301 10.5977 219.334 10.8076 219.334 11.0569V11.2308H217.274V10.876H218.916C218.916 10.7252 218.886 10.5907 218.826 10.4724C218.767 10.3542 218.682 10.2608 218.572 10.1924C218.463 10.124 218.334 10.0898 218.186 10.0898C218.022 10.0898 217.881 10.1304 217.761 10.2115C217.643 10.2915 217.552 10.3959 217.488 10.5246C217.424 10.6533 217.393 10.7913 217.393 10.9386V11.1752C217.393 11.3769 217.427 11.548 217.497 11.6883C217.568 11.8274 217.666 11.9335 217.791 12.0066C217.916 12.0785 218.062 12.1144 218.227 12.1144C218.335 12.1144 218.433 12.0994 218.52 12.0692C218.608 12.0379 218.684 11.9915 218.748 11.9301C218.811 11.8674 218.861 11.7897 218.895 11.697L219.292 11.8083C219.25 11.9428 219.18 12.0611 219.081 12.1631C218.983 12.264 218.861 12.3429 218.716 12.3997C218.571 12.4554 218.408 12.4832 218.227 12.4832ZM220.141 13.4294C220.072 13.4294 220.01 13.4236 219.955 13.412C219.901 13.4016 219.863 13.3911 219.842 13.3807L219.946 13.0189C220.046 13.0444 220.134 13.0537 220.211 13.0467C220.287 13.0398 220.355 13.0056 220.414 12.9441C220.475 12.8838 220.53 12.7858 220.58 12.6502L220.656 12.4414L219.668 9.7558H220.113L220.851 11.8848H220.879L221.616 9.7558H222.062L220.927 12.8171C220.876 12.9551 220.813 13.0694 220.738 13.1598C220.662 13.2514 220.575 13.3193 220.475 13.3633C220.377 13.4074 220.265 13.4294 220.141 13.4294ZM223.209 12.4275L222.395 9.7558H222.826L223.403 11.8013H223.431L224.002 9.7558H224.44L225.004 11.7944H225.032L225.609 9.7558H226.04L225.226 12.4275H224.823L224.238 10.375H224.197L223.612 12.4275H223.209ZM227.578 12.4832C227.336 12.4832 227.125 12.4258 226.943 12.311C226.762 12.1962 226.62 12.0356 226.518 11.8292C226.417 11.6228 226.367 11.3816 226.367 11.1056C226.367 10.8273 226.417 10.5843 226.518 10.3768C226.62 10.1692 226.762 10.008 226.943 9.89321C227.125 9.77841 227.336 9.72101 227.578 9.72101C227.819 9.72101 228.03 9.77841 228.211 9.89321C228.393 10.008 228.534 10.1692 228.635 10.3768C228.737 10.5843 228.788 10.8273 228.788 11.1056C228.788 11.3816 228.737 11.6228 228.635 11.8292C228.534 12.0356 228.393 12.1962 228.211 12.311C228.03 12.4258 227.819 12.4832 227.578 12.4832ZM227.578 12.1144C227.761 12.1144 227.912 12.0675 228.03 11.9735C228.148 11.8796 228.236 11.7561 228.292 11.603C228.349 11.45 228.378 11.2842 228.378 11.1056C228.378 10.927 228.349 10.7606 228.292 10.6064C228.236 10.4521 228.148 10.3275 228.03 10.2324C227.912 10.1373 227.761 10.0898 227.578 10.0898C227.394 10.0898 227.244 10.1373 227.125 10.2324C227.007 10.3275 226.92 10.4521 226.863 10.6064C226.806 10.7606 226.777 10.927 226.777 11.1056C226.777 11.2842 226.806 11.45 226.863 11.603C226.92 11.7561 227.007 11.8796 227.125 11.9735C227.244 12.0675 227.394 12.1144 227.578 12.1144ZM229.415 12.4275V9.7558H229.811V10.1593H229.839C229.888 10.0271 229.976 9.91988 230.104 9.83755C230.231 9.75522 230.375 9.71405 230.535 9.71405C230.565 9.71405 230.603 9.71463 230.648 9.71579C230.693 9.71695 230.728 9.71869 230.751 9.72101V10.1385C230.737 10.135 230.705 10.1298 230.655 10.1228C230.606 10.1147 230.555 10.1106 230.5 10.1106C230.37 10.1106 230.254 10.1379 230.152 10.1924C230.051 10.2457 229.971 10.3199 229.912 10.415C229.854 10.509 229.825 10.6162 229.825 10.7368V12.4275H229.415ZM232.165 12.4832C231.942 12.4832 231.746 12.4269 231.575 12.3145C231.405 12.2008 231.271 12.0408 231.175 11.8344C231.079 11.6268 231.031 11.3816 231.031 11.0986C231.031 10.818 231.079 10.5745 231.175 10.3681C231.271 10.1617 231.405 10.0022 231.577 9.88973C231.749 9.77725 231.947 9.72101 232.172 9.72101C232.346 9.72101 232.483 9.75 232.584 9.80798C232.686 9.8648 232.764 9.92974 232.817 10.0028C232.872 10.0747 232.914 10.1338 232.944 10.1802H232.979V8.86523H233.389V12.4275H232.993V12.017H232.944C232.914 12.0657 232.871 12.1272 232.815 12.2014C232.76 12.2745 232.68 12.34 232.577 12.398C232.474 12.4548 232.336 12.4832 232.165 12.4832ZM232.22 12.1144C232.385 12.1144 232.524 12.0715 232.638 11.9857C232.752 11.8987 232.838 11.7787 232.897 11.6257C232.956 11.4714 232.986 11.2934 232.986 11.0917C232.986 10.8922 232.957 10.7177 232.899 10.5681C232.841 10.4174 232.755 10.3002 232.641 10.2167C232.528 10.1321 232.387 10.0898 232.22 10.0898C232.047 10.0898 231.902 10.1344 231.786 10.2237C231.671 10.3118 231.584 10.4318 231.526 10.5838C231.47 10.7345 231.441 10.9038 231.441 11.0917C231.441 11.2818 231.47 11.4546 231.528 11.61C231.587 11.7642 231.674 11.8871 231.789 11.9788C231.905 12.0692 232.049 12.1144 232.22 12.1144ZM236.091 10.3542L235.722 10.4585C235.699 10.3971 235.665 10.3373 235.619 10.2794C235.575 10.2202 235.515 10.1715 235.438 10.1333C235.362 10.095 235.264 10.0759 235.144 10.0759C234.981 10.0759 234.845 10.1135 234.736 10.1889C234.628 10.2631 234.574 10.3576 234.574 10.4724C234.574 10.5745 234.611 10.6551 234.685 10.7142C234.759 10.7733 234.875 10.8226 235.033 10.8621L235.43 10.9595C235.669 11.0174 235.847 11.1062 235.964 11.2256C236.081 11.3439 236.139 11.4964 236.139 11.6831C236.139 11.8361 236.095 11.973 236.007 12.0936C235.92 12.2142 235.798 12.3092 235.642 12.3788C235.485 12.4484 235.303 12.4832 235.096 12.4832C234.823 12.4832 234.598 12.424 234.419 12.3058C234.241 12.1875 234.127 12.0147 234.08 11.7874L234.47 11.69C234.507 11.8338 234.577 11.9416 234.68 12.0135C234.784 12.0854 234.921 12.1214 235.089 12.1214C235.28 12.1214 235.432 12.0808 235.544 11.9996C235.658 11.9173 235.715 11.8187 235.715 11.7039C235.715 11.6112 235.682 11.5335 235.618 11.4708C235.553 11.4071 235.453 11.3595 235.318 11.3282L234.873 11.2239C234.628 11.1659 234.449 11.076 234.334 10.9542C234.22 10.8313 234.163 10.6777 234.163 10.4933C234.163 10.3426 234.206 10.2092 234.29 10.0932C234.376 9.97728 234.493 9.88626 234.64 9.82016C234.788 9.75406 234.957 9.72101 235.144 9.72101C235.409 9.72101 235.616 9.77899 235.767 9.89495C235.919 10.0109 236.027 10.164 236.091 10.3542Z" fill="#9CA3AF"/>
<path d="M169.665 9.09308V8.56592H172.806V9.09308H171.54V12.6246H170.93V9.09308H169.665ZM174.294 12.686C174.008 12.686 173.759 12.6206 173.546 12.4898C173.334 12.359 173.169 12.1761 173.051 11.9409C172.933 11.7057 172.875 11.4309 172.875 11.1165C172.875 10.8007 172.933 10.5246 173.051 10.2881C173.169 10.0516 173.334 9.86795 173.546 9.73715C173.759 9.60636 174.008 9.54096 174.294 9.54096C174.579 9.54096 174.828 9.60636 175.041 9.73715C175.253 9.86795 175.419 10.0516 175.536 10.2881C175.654 10.5246 175.713 10.8007 175.713 11.1165C175.713 11.4309 175.654 11.7057 175.536 11.9409C175.419 12.1761 175.253 12.359 175.041 12.4898C174.828 12.6206 174.579 12.686 174.294 12.686ZM174.296 12.1886C174.481 12.1886 174.634 12.1397 174.755 12.042C174.877 11.9442 174.967 11.8141 175.025 11.6516C175.084 11.489 175.114 11.31 175.114 11.1145C175.114 10.9203 175.084 10.7419 175.025 10.5794C174.967 10.4156 174.877 10.2841 174.755 10.185C174.634 10.0859 174.481 10.0364 174.296 10.0364C174.109 10.0364 173.955 10.0859 173.832 10.185C173.71 10.2841 173.62 10.4156 173.56 10.5794C173.502 10.7419 173.473 10.9203 173.473 11.1145C173.473 11.31 173.502 11.489 173.56 11.6516C173.62 11.8141 173.71 11.9442 173.832 12.042C173.955 12.1397 174.109 12.1886 174.296 12.1886ZM176.374 13.7661V9.58059H176.953V10.0741H177.002C177.037 10.0106 177.086 9.93731 177.151 9.85408C177.216 9.77084 177.305 9.69818 177.42 9.63608C177.535 9.57267 177.687 9.54096 177.876 9.54096C178.122 9.54096 178.341 9.60305 178.534 9.72725C178.727 9.85144 178.878 10.0305 178.988 10.2643C179.099 10.4982 179.154 10.7796 179.154 11.1085C179.154 11.4375 179.1 11.7196 178.99 11.9548C178.88 12.1886 178.73 12.369 178.538 12.4958C178.347 12.6213 178.128 12.6841 177.882 12.6841C177.697 12.6841 177.546 12.653 177.428 12.5909C177.312 12.5288 177.221 12.4562 177.155 12.3729C177.089 12.2897 177.038 12.2157 177.002 12.151H176.967V13.7661H176.374ZM176.955 11.1026C176.955 11.3166 176.986 11.5042 177.048 11.6654C177.11 11.8266 177.2 11.9528 177.317 12.0439C177.435 12.1338 177.579 12.1787 177.749 12.1787C177.926 12.1787 178.074 12.1318 178.193 12.038C178.312 11.9429 178.402 11.8141 178.463 11.6516C178.525 11.489 178.556 11.3061 178.556 11.1026C178.556 10.9018 178.526 10.7214 178.465 10.5616C178.405 10.4017 178.315 10.2755 178.195 10.1831C178.076 10.0906 177.928 10.0443 177.749 10.0443C177.578 10.0443 177.432 10.0886 177.313 10.1771C177.196 10.2656 177.107 10.3892 177.046 10.5477C176.985 10.7062 176.955 10.8912 176.955 11.1026ZM179.818 12.6246V9.58059H180.411V12.6246H179.818ZM180.118 9.11091C180.015 9.11091 179.926 9.07656 179.852 9.00786C179.779 8.93784 179.743 8.8546 179.743 8.75816C179.743 8.66039 179.779 8.57715 179.852 8.50845C179.926 8.43843 180.015 8.40342 180.118 8.40342C180.221 8.40342 180.308 8.43843 180.381 8.50845C180.455 8.57715 180.492 8.66039 180.492 8.75816C180.492 8.8546 180.455 8.93784 180.381 9.00786C180.308 9.07656 180.221 9.11091 180.118 9.11091ZM182.49 12.686C182.196 12.686 181.942 12.6193 181.729 12.4859C181.518 12.3511 181.355 12.1655 181.242 11.929C181.128 11.6925 181.071 11.4217 181.071 11.1165C181.071 10.8073 181.129 10.5345 181.246 10.298C181.362 10.0602 181.526 9.87456 181.737 9.74112C181.949 9.60768 182.198 9.54096 182.484 9.54096C182.716 9.54096 182.922 9.5839 183.103 9.66977C183.284 9.75433 183.43 9.87324 183.541 10.0265C183.653 10.1798 183.72 10.3588 183.741 10.5636H183.164C183.132 10.4209 183.06 10.298 182.946 10.1949C182.834 10.0919 182.683 10.0404 182.494 10.0404C182.329 10.0404 182.184 10.084 182.06 10.1712C181.937 10.257 181.842 10.3799 181.773 10.5398C181.704 10.6983 181.67 10.8859 181.67 11.1026C181.67 11.3246 181.703 11.5161 181.771 11.6773C181.838 11.8385 181.933 11.9634 182.056 12.0519C182.18 12.1404 182.326 12.1846 182.494 12.1846C182.607 12.1846 182.708 12.1642 182.799 12.1232C182.892 12.0809 182.969 12.0208 183.031 11.9429C183.095 11.8649 183.139 11.7711 183.164 11.6615H183.741C183.72 11.8583 183.656 12.034 183.549 12.1886C183.441 12.3432 183.298 12.4647 183.118 12.5533C182.94 12.6418 182.731 12.686 182.49 12.686ZM186.655 10.3238L186.118 10.4189C186.096 10.3502 186.06 10.2848 186.011 10.2227C185.964 10.1606 185.899 10.1097 185.817 10.0701C185.735 10.0305 185.633 10.0106 185.51 10.0106C185.342 10.0106 185.202 10.0483 185.09 10.1236C184.978 10.1976 184.921 10.2934 184.921 10.411C184.921 10.5127 184.959 10.5946 185.034 10.6567C185.11 10.7188 185.231 10.7697 185.399 10.8093L185.883 10.9203C186.163 10.985 186.371 11.0848 186.509 11.2195C186.646 11.3543 186.715 11.5293 186.715 11.7447C186.715 11.927 186.662 12.0895 186.556 12.2322C186.452 12.3736 186.306 12.4846 186.118 12.5651C185.932 12.6457 185.716 12.686 185.47 12.686C185.129 12.686 184.851 12.6134 184.636 12.468C184.421 12.3214 184.289 12.1133 184.24 11.8438L184.812 11.7566C184.848 11.9059 184.921 12.0188 185.032 12.0955C185.143 12.1708 185.288 12.2084 185.466 12.2084C185.661 12.2084 185.816 12.1681 185.932 12.0875C186.048 12.0056 186.106 11.9059 186.106 11.7883C186.106 11.6932 186.071 11.6132 185.999 11.5485C185.929 11.4838 185.822 11.4349 185.676 11.4018L185.161 11.2889C184.877 11.2241 184.667 11.1211 184.531 10.9797C184.396 10.8384 184.329 10.6593 184.329 10.4427C184.329 10.263 184.379 10.1058 184.479 9.971C184.58 9.83624 184.719 9.73121 184.896 9.6559C185.073 9.57927 185.275 9.54096 185.504 9.54096C185.833 9.54096 186.092 9.6123 186.281 9.75499C186.47 9.89636 186.595 10.0859 186.655 10.3238Z" fill="#C3BEE0"/>
<g clip-path="url(#clip0_46_3415)">
<path d="M164.066 13.2492V12.7139C164.066 12.4299 163.953 12.1576 163.752 11.9568C163.552 11.756 163.279 11.6432 162.995 11.6432H161.389C161.106 11.6432 160.833 11.756 160.632 11.9568C160.432 12.1576 160.319 12.4299 160.319 12.7139V13.2492" stroke="#C3BEE0" stroke-width="0.535317" stroke-linecap="round" stroke-linejoin="round"/>
<path d="M162.193 10.5728C162.784 10.5728 163.264 10.0934 163.264 9.50201C163.264 8.91063 162.784 8.43121 162.193 8.43121C161.601 8.43121 161.122 8.91063 161.122 9.50201C161.122 10.0934 161.601 10.5728 162.193 10.5728Z" stroke="#C3BEE0" stroke-width="0.535317" stroke-linecap="round" stroke-linejoin="round"/>
<path d="M165.672 13.2494V12.714C165.672 12.4768 165.593 12.2463 165.448 12.0588C165.302 11.8712 165.099 11.7373 164.869 11.678" stroke="#C3BEE0" stroke-width="0.535317" stroke-linecap="round" stroke-linejoin="round"/>
<path d="M164.066 8.46603C164.296 8.52501 164.5 8.65897 164.646 8.84679C164.792 9.03461 164.871 9.26561 164.871 9.50337C164.871 9.74113 164.792 9.97213 164.646 10.16C164.5 10.3478 164.296 10.4817 164.066 10.5407" stroke="#C3BEE0" stroke-width="0.535317" stroke-linecap="round" stroke-linejoin="round"/>
</g>
</g>
<g clip-path="url(#clip1_46_3415)">
<path d="M60.6592 59.0682C62.4465 59.0682 63.9131 60.5348 63.9131 62.3221V92.6942C63.9131 94.4815 62.4465 95.9481 60.6592 95.9481H44.3887V93.7792H61.7441V61.2372H44.3887V59.0682H60.6592ZM50.4473 77.5077L41.1338 86.8212L39.6309 85.3182L44.5049 80.4452L46.3564 78.5927H22.6943V76.4237H46.3564L39.6309 69.6981L41.1338 68.1942L50.4473 77.5077Z" fill="#4C4DDC" stroke="#C8C8F4" stroke-width="2.16944"/>
</g>
<path d="M152.78 27.2167L149.821 25.5087V28.9247L152.78 27.2167ZM165.976 128.983L163.017 127.275V130.691L165.976 128.983ZM150.973 26.9208C150.81 26.9208 150.678 27.0533 150.678 27.2167C150.678 27.3801 150.81 27.5125 150.973 27.5125V27.2167V26.9208ZM147.361 27.5125C147.524 27.5125 147.657 27.3801 147.657 27.2167C147.657 27.0533 147.524 26.9208 147.361 26.9208V27.2167V27.5125ZM143.748 26.9208C143.585 26.9208 143.452 27.0533 143.452 27.2167C143.452 27.3801 143.585 27.5125 143.748 27.5125V27.2167V26.9208ZM140.135 27.5125C140.299 27.5125 140.431 27.3801 140.431 27.2167C140.431 27.0533 140.299 26.9208 140.135 26.9208V27.2167V27.5125ZM136.522 26.9208C136.359 26.9208 136.227 27.0533 136.227 27.2167C136.227 27.3801 136.359 27.5125 136.522 27.5125V27.2167V26.9208ZM132.91 27.5125C133.073 27.5125 133.205 27.3801 133.205 27.2167C133.205 27.0533 133.073 26.9208 132.91 26.9208V27.2167V27.5125ZM129.297 26.9208C129.134 26.9208 129.001 27.0533 129.001 27.2167C129.001 27.3801 129.134 27.5125 129.297 27.5125V27.2167V26.9208ZM125.684 27.5125C125.848 27.5125 125.98 27.3801 125.98 27.2167C125.98 27.0533 125.848 26.9208 125.684 26.9208V27.2167V27.5125ZM122.071 26.9208C121.908 26.9208 121.776 27.0533 121.776 27.2167C121.776 27.3801 121.908 27.5125 122.071 27.5125V27.2167V26.9208ZM118.459 27.5125C118.622 27.5125 118.754 27.3801 118.754 27.2167C118.754 27.0533 118.622 26.9208 118.459 26.9208V27.2167V27.5125ZM114.846 26.9208C114.683 26.9208 114.55 27.0533 114.55 27.2167C114.55 27.3801 114.683 27.5125 114.846 27.5125V27.2167V26.9208ZM111.233 27.5125C111.397 27.5125 111.529 27.3801 111.529 27.2167C111.529 27.0533 111.397 26.9208 111.233 26.9208V27.2167V27.5125ZM107.62 26.9208C107.457 26.9208 107.325 27.0533 107.325 27.2167C107.325 27.3801 107.457 27.5125 107.62 27.5125V27.2167V26.9208ZM104.008 27.5125C104.171 27.5125 104.303 27.3801 104.303 27.2167C104.303 27.0533 104.171 26.9208 104.008 26.9208V27.2167V27.5125ZM100.395 26.9208C100.232 26.9208 100.099 27.0533 100.099 27.2167C100.099 27.3801 100.232 27.5125 100.395 27.5125V27.2167V26.9208ZM96.7821 27.5125C96.9455 27.5125 97.078 27.3801 97.078 27.2167C97.078 27.0533 96.9455 26.9208 96.7821 26.9208V27.2167V27.5125ZM93.0503 27.303C92.8994 27.3656 92.8278 27.5387 92.8905 27.6896C92.9531 27.8405 93.1262 27.9121 93.2771 27.8494L93.1637 27.5762L93.0503 27.303ZM90.8749 30.2529C90.9375 30.102 90.8658 29.9289 90.7149 29.8664C90.564 29.8038 90.3909 29.8754 90.3283 30.0263L90.6016 30.1396L90.8749 30.2529ZM89.9466 33.8746C89.9466 34.038 90.079 34.1705 90.2424 34.1705C90.4058 34.1705 90.5383 34.038 90.5383 33.8746H90.2424H89.9466ZM90.5383 37.7203C90.5383 37.5569 90.4058 37.4245 90.2424 37.4245C90.079 37.4245 89.9466 37.5569 89.9466 37.7203H90.2424H90.5383ZM89.9466 41.5659C89.9466 41.7293 90.079 41.8618 90.2424 41.8618C90.4058 41.8618 90.5383 41.7293 90.5383 41.5659H90.2424H89.9466ZM90.5383 45.4116C90.5383 45.2482 90.4058 45.1158 90.2424 45.1158C90.079 45.1158 89.9466 45.2482 89.9466 45.4116H90.2424H90.5383ZM89.9466 49.2572C89.9466 49.4206 90.079 49.5531 90.2424 49.5531C90.4058 49.5531 90.5383 49.4206 90.5383 49.2572H90.2424H89.9466ZM90.5383 53.1029C90.5383 52.9395 90.4058 52.8071 90.2424 52.8071C90.079 52.8071 89.9466 52.9395 89.9466 53.1029H90.2424H90.5383ZM89.9466 56.9486C89.9466 57.1119 90.079 57.2444 90.2424 57.2444C90.4058 57.2444 90.5383 57.1119 90.5383 56.9486H90.2424H89.9466ZM90.5383 60.7942C90.5383 60.6308 90.4058 60.4984 90.2424 60.4984C90.079 60.4984 89.9466 60.6308 89.9466 60.7942H90.2424H90.5383ZM89.9466 64.6399C89.9466 64.8032 90.079 64.9357 90.2424 64.9357C90.4058 64.9357 90.5383 64.8032 90.5383 64.6399H90.2424H89.9466ZM90.5383 68.4855C90.5383 68.3221 90.4058 68.1897 90.2424 68.1897C90.079 68.1897 89.9466 68.3221 89.9466 68.4855H90.2424H90.5383ZM89.9466 72.0909C89.9466 72.2543 90.079 72.3867 90.2424 72.3867C90.4058 72.3867 90.5383 72.2543 90.5383 72.0909H90.2424H89.9466ZM90.5383 75.456C90.5383 75.2926 90.4058 75.1602 90.2424 75.1602C90.079 75.1602 89.9466 75.2926 89.9466 75.456H90.2424H90.5383ZM89.9466 78.8211C89.9466 78.9845 90.079 79.1169 90.2424 79.1169C90.4058 79.1169 90.5383 78.9845 90.5383 78.8211H90.2424H89.9466ZM90.5383 82.1862C90.5383 82.0228 90.4058 81.8904 90.2424 81.8904C90.079 81.8904 89.9466 82.0228 89.9466 82.1862H90.2424H90.5383ZM89.9466 85.5513C89.9466 85.7147 90.079 85.8471 90.2424 85.8471C90.4058 85.8471 90.5383 85.7147 90.5383 85.5513H90.2424H89.9466ZM90.5383 88.9164C90.5383 88.753 90.4058 88.6206 90.2424 88.6206C90.079 88.6206 89.9466 88.753 89.9466 88.9164H90.2424H90.5383ZM89.9466 92.2815C89.9466 92.4449 90.079 92.5774 90.2424 92.5774C90.4058 92.5774 90.5383 92.4449 90.5383 92.2815H90.2424H89.9466ZM90.5383 95.6466C90.5383 95.4832 90.4058 95.3508 90.2424 95.3508C90.079 95.3508 89.9466 95.4832 89.9466 95.6466H90.2424H90.5383ZM89.9466 99.0117C89.9466 99.1751 90.079 99.3076 90.2424 99.3076C90.4058 99.3076 90.5383 99.1751 90.5383 99.0117H90.2424H89.9466ZM90.5383 102.377C90.5383 102.213 90.4058 102.081 90.2424 102.081C90.079 102.081 89.9466 102.213 89.9466 102.377H90.2424H90.5383ZM89.9466 105.742C89.9466 105.905 90.079 106.038 90.2424 106.038C90.4058 106.038 90.5383 105.905 90.5383 105.742H90.2424H89.9466ZM90.5383 109.107C90.5383 108.944 90.4058 108.811 90.2424 108.811C90.079 108.811 89.9466 108.944 89.9466 109.107H90.2424H90.5383ZM89.9466 112.472C89.9466 112.636 90.079 112.768 90.2424 112.768C90.4058 112.768 90.5383 112.636 90.5383 112.472H90.2424H89.9466ZM90.5383 115.837C90.5383 115.674 90.4058 115.541 90.2424 115.541C90.079 115.541 89.9466 115.674 89.9466 115.837H90.2424H90.5383ZM89.9466 119.202C89.9466 119.366 90.079 119.498 90.2424 119.498C90.4058 119.498 90.5383 119.366 90.5383 119.202H90.2424H89.9466ZM90.5383 122.567C90.5383 122.404 90.4058 122.272 90.2424 122.272C90.079 122.272 89.9466 122.404 89.9466 122.567H90.2424H90.5383ZM90.3283 126.175C90.3909 126.326 90.564 126.398 90.7149 126.335C90.8658 126.273 90.9375 126.099 90.8749 125.949L90.6016 126.062L90.3283 126.175ZM93.2772 128.351C93.1263 128.288 92.9532 128.36 92.8906 128.511C92.828 128.662 92.8997 128.835 93.0506 128.897L93.1639 128.624L93.2772 128.351ZM96.7508 129.279C96.9141 129.279 97.0466 129.147 97.0466 128.983C97.0466 128.82 96.9141 128.688 96.7508 128.688V128.983V129.279ZM100.301 128.688C100.137 128.688 100.005 128.82 100.005 128.983C100.005 129.147 100.137 129.279 100.301 129.279V128.983V128.688ZM103.851 129.279C104.014 129.279 104.147 129.147 104.147 128.983C104.147 128.82 104.014 128.688 103.851 128.688V128.983V129.279ZM107.401 128.688C107.237 128.688 107.105 128.82 107.105 128.983C107.105 129.147 107.237 129.279 107.401 129.279V128.983V128.688ZM110.951 129.279C111.114 129.279 111.247 129.147 111.247 128.983C111.247 128.82 111.114 128.688 110.951 128.688V128.983V129.279ZM114.501 128.688C114.337 128.688 114.205 128.82 114.205 128.983C114.205 129.147 114.337 129.279 114.501 129.279V128.983V128.688ZM118.051 129.279C118.214 129.279 118.347 129.147 118.347 128.983C118.347 128.82 118.214 128.688 118.051 128.688V128.983V129.279ZM121.601 128.688C121.437 128.688 121.305 128.82 121.305 128.983C121.305 129.147 121.437 129.279 121.601 129.279V128.983V128.688ZM125.151 129.279C125.314 129.279 125.447 129.147 125.447 128.983C125.447 128.82 125.314 128.688 125.151 128.688V128.983V129.279ZM128.701 128.688C128.537 128.688 128.405 128.82 128.405 128.983C128.405 129.147 128.537 129.279 128.701 129.279V128.983V128.688ZM132.251 129.279C132.414 129.279 132.547 129.147 132.547 128.983C132.547 128.82 132.414 128.688 132.251 128.688V128.983V129.279ZM135.801 128.688C135.637 128.688 135.505 128.82 135.505 128.983C135.505 129.147 135.637 129.279 135.801 129.279V128.983V128.688ZM139.351 129.279C139.514 129.279 139.647 129.147 139.647 128.983C139.647 128.82 139.514 128.688 139.351 128.688V128.983V129.279ZM142.901 128.688C142.737 128.688 142.605 128.82 142.605 128.983C142.605 129.147 142.737 129.279 142.901 129.279V128.983V128.688ZM146.451 129.279C146.614 129.279 146.747 129.147 146.747 128.983C146.747 128.82 146.614 128.688 146.451 128.688V128.983V129.279ZM150.001 128.688C149.837 128.688 149.705 128.82 149.705 128.983C149.705 129.147 149.837 129.279 150.001 129.279V128.983V128.688ZM153.551 129.279C153.714 129.279 153.847 129.147 153.847 128.983C153.847 128.82 153.714 128.688 153.551 128.688V128.983V129.279ZM157.101 128.688C156.937 128.688 156.805 128.82 156.805 128.983C156.805 129.147 156.937 129.279 157.101 129.279V128.983V128.688ZM160.651 129.279C160.814 129.279 160.947 129.147 160.947 128.983C160.947 128.82 160.814 128.688 160.651 128.688V128.983V129.279ZM164.201 128.688C164.037 128.688 163.905 128.82 163.905 128.983C163.905 129.147 164.037 129.279 164.201 129.279V128.983V128.688ZM147.361 27.2167V26.9208H143.748V27.2167V27.5125H147.361V27.2167ZM140.135 27.2167V26.9208H136.522V27.2167V27.5125H140.135V27.2167ZM132.91 27.2167V26.9208H129.297V27.2167V27.5125H132.91V27.2167ZM125.684 27.2167V26.9208H122.071V27.2167V27.5125H125.684V27.2167ZM118.459 27.2167V26.9208H114.846V27.2167V27.5125H118.459V27.2167ZM111.233 27.2167V26.9208H107.62V27.2167V27.5125H111.233V27.2167ZM104.008 27.2167V26.9208H100.395V27.2167V27.5125H104.008V27.2167ZM96.7821 27.2167V26.9208H94.9758V27.2167V27.5125H96.7821V27.2167ZM94.9758 27.2167V26.9208C94.2943 26.9208 93.6437 27.0567 93.0503 27.303L93.1637 27.5762L93.2771 27.8494C93.7999 27.6324 94.3735 27.5125 94.9758 27.5125V27.2167ZM90.6016 30.1396L90.3283 30.0263C90.0823 30.6199 89.9466 31.2704 89.9466 31.9518H90.2424H90.5383C90.5383 31.3496 90.6581 30.7759 90.8749 30.2529L90.6016 30.1396ZM90.2424 31.9518H89.9466V33.8746H90.2424H90.5383V31.9518H90.2424ZM90.2424 37.7203H89.9466V41.5659H90.2424H90.5383V37.7203H90.2424ZM90.2424 45.4116H89.9466V49.2572H90.2424H90.5383V45.4116H90.2424ZM90.2424 53.1029H89.9466V56.9486H90.2424H90.5383V53.1029H90.2424ZM90.2424 60.7942H89.9466V64.6399H90.2424H90.5383V60.7942H90.2424ZM90.2424 68.4855H89.9466V70.4083H90.2424H90.5383V68.4855H90.2424ZM90.2424 70.4083H89.9466V72.0909H90.2424H90.5383V70.4083H90.2424ZM90.2424 75.456H89.9466V78.8211H90.2424H90.5383V75.456H90.2424ZM90.2424 82.1862H89.9466V85.5513H90.2424H90.5383V82.1862H90.2424ZM90.2424 88.9164H89.9466V92.2815H90.2424H90.5383V88.9164H90.2424ZM90.2424 95.6466H89.9466V99.0117H90.2424H90.5383V95.6466H90.2424ZM90.2424 102.377H89.9466V105.742H90.2424H90.5383V102.377H90.2424ZM90.2424 109.107H89.9466V112.472H90.2424H90.5383V109.107H90.2424ZM90.2424 115.837H89.9466V119.202H90.2424H90.5383V115.837H90.2424ZM90.2424 122.567H89.9466V124.25H90.2424H90.5383V122.567H90.2424ZM90.2424 124.25H89.9466C89.9466 124.931 90.0823 125.582 90.3283 126.175L90.6016 126.062L90.8749 125.949C90.6581 125.426 90.5383 124.852 90.5383 124.25H90.2424ZM93.1639 128.624L93.0506 128.897C93.644 129.144 94.2944 129.279 94.9758 129.279V128.983V128.688C94.3735 128.688 93.8 128.568 93.2772 128.351L93.1639 128.624ZM94.9758 128.983V129.279H96.7508V128.983V128.688H94.9758V128.983ZM100.301 128.983V129.279H103.851V128.983V128.688H100.301V128.983ZM107.401 128.983V129.279H110.951V128.983V128.688H107.401V128.983ZM114.501 128.983V129.279H118.051V128.983V128.688H114.501V128.983ZM121.601 128.983V129.279H125.151V128.983V128.688H121.601V128.983ZM128.701 128.983V129.279H132.251V128.983V128.688H128.701V128.983ZM135.801 128.983V129.279H139.351V128.983V128.688H135.801V128.983ZM142.901 128.983V129.279H146.451V128.983V128.688H142.901V128.983ZM150.001 128.983V129.279H153.551V128.983V128.688H150.001V128.983ZM157.101 128.983V129.279H160.651V128.983V128.688H157.101V128.983ZM152.78 27.2167L149.821 25.5087V28.9247L152.78 27.2167ZM165.976 128.983L163.017 127.275V130.691L165.976 128.983ZM150.973 26.9208C150.81 26.9208 150.678 27.0533 150.678 27.2167C150.678 27.3801 150.81 27.5125 150.973 27.5125V27.2167V26.9208ZM147.361 27.5125C147.524 27.5125 147.657 27.3801 147.657 27.2167C147.657 27.0533 147.524 26.9208 147.361 26.9208V27.2167V27.5125ZM143.748 26.9208C143.585 26.9208 143.452 27.0533 143.452 27.2167C143.452 27.3801 143.585 27.5125 143.748 27.5125V27.2167V26.9208ZM140.135 27.5125C140.299 27.5125 140.431 27.3801 140.431 27.2167C140.431 27.0533 140.299 26.9208 140.135 26.9208V27.2167V27.5125ZM136.522 26.9208C136.359 26.9208 136.227 27.0533 136.227 27.2167C136.227 27.3801 136.359 27.5125 136.522 27.5125V27.2167V26.9208ZM132.91 27.5125C133.073 27.5125 133.205 27.3801 133.205 27.2167C133.205 27.0533 133.073 26.9208 132.91 26.9208V27.2167V27.5125ZM129.297 26.9208C129.134 26.9208 129.001 27.0533 129.001 27.2167C129.001 27.3801 129.134 27.5125 129.297 27.5125V27.2167V26.9208ZM125.684 27.5125C125.848 27.5125 125.98 27.3801 125.98 27.2167C125.98 27.0533 125.848 26.9208 125.684 26.9208V27.2167V27.5125ZM122.071 26.9208C121.908 26.9208 121.776 27.0533 121.776 27.2167C121.776 27.3801 121.908 27.5125 122.071 27.5125V27.2167V26.9208ZM118.459 27.5125C118.622 27.5125 118.754 27.3801 118.754 27.2167C118.754 27.0533 118.622 26.9208 118.459 26.9208V27.2167V27.5125ZM114.846 26.9208C114.683 26.9208 114.55 27.0533 114.55 27.2167C114.55 27.3801 114.683 27.5125 114.846 27.5125V27.2167V26.9208ZM111.233 27.5125C111.397 27.5125 111.529 27.3801 111.529 27.2167C111.529 27.0533 111.397 26.9208 111.233 26.9208V27.2167V27.5125ZM107.62 26.9208C107.457 26.9208 107.325 27.0533 107.325 27.2167C107.325 27.3801 107.457 27.5125 107.62 27.5125V27.2167V26.9208ZM104.008 27.5125C104.171 27.5125 104.303 27.3801 104.303 27.2167C104.303 27.0533 104.171 26.9208 104.008 26.9208V27.2167V27.5125ZM100.395 26.9208C100.232 26.9208 100.099 27.0533 100.099 27.2167C100.099 27.3801 100.232 27.5125 100.395 27.5125V27.2167V26.9208ZM96.7821 27.5125C96.9455 27.5125 97.078 27.3801 97.078 27.2167C97.078 27.0533 96.9455 26.9208 96.7821 26.9208V27.2167V27.5125ZM93.0503 27.303C92.8994 27.3656 92.8278 27.5387 92.8905 27.6896C92.9531 27.8405 93.1262 27.9121 93.2771 27.8494L93.1637 27.5762L93.0503 27.303ZM90.8749 30.2529C90.9375 30.102 90.8658 29.9289 90.7149 29.8664C90.564 29.8038 90.3909 29.8754 90.3283 30.0263L90.6016 30.1396L90.8749 30.2529ZM89.9466 33.8746C89.9466 34.038 90.079 34.1705 90.2424 34.1705C90.4058 34.1705 90.5383 34.038 90.5383 33.8746H90.2424H89.9466ZM90.5383 37.7203C90.5383 37.5569 90.4058 37.4245 90.2424 37.4245C90.079 37.4245 89.9466 37.5569 89.9466 37.7203H90.2424H90.5383ZM89.9466 41.5659C89.9466 41.7293 90.079 41.8618 90.2424 41.8618C90.4058 41.8618 90.5383 41.7293 90.5383 41.5659H90.2424H89.9466ZM90.5383 45.4116C90.5383 45.2482 90.4058 45.1158 90.2424 45.1158C90.079 45.1158 89.9466 45.2482 89.9466 45.4116H90.2424H90.5383ZM89.9466 49.2572C89.9466 49.4206 90.079 49.5531 90.2424 49.5531C90.4058 49.5531 90.5383 49.4206 90.5383 49.2572H90.2424H89.9466ZM90.5383 53.1029C90.5383 52.9395 90.4058 52.8071 90.2424 52.8071C90.079 52.8071 89.9466 52.9395 89.9466 53.1029H90.2424H90.5383ZM89.9466 56.9486C89.9466 57.1119 90.079 57.2444 90.2424 57.2444C90.4058 57.2444 90.5383 57.1119 90.5383 56.9486H90.2424H89.9466ZM90.5383 60.7942C90.5383 60.6308 90.4058 60.4984 90.2424 60.4984C90.079 60.4984 89.9466 60.6308 89.9466 60.7942H90.2424H90.5383ZM89.9466 64.6399C89.9466 64.8032 90.079 64.9357 90.2424 64.9357C90.4058 64.9357 90.5383 64.8032 90.5383 64.6399H90.2424H89.9466ZM90.5383 68.4855C90.5383 68.3221 90.4058 68.1897 90.2424 68.1897C90.079 68.1897 89.9466 68.3221 89.9466 68.4855H90.2424H90.5383ZM89.9466 72.0909C89.9466 72.2543 90.079 72.3867 90.2424 72.3867C90.4058 72.3867 90.5383 72.2543 90.5383 72.0909H90.2424H89.9466ZM90.5383 75.456C90.5383 75.2926 90.4058 75.1602 90.2424 75.1602C90.079 75.1602 89.9466 75.2926 89.9466 75.456H90.2424H90.5383ZM89.9466 78.8211C89.9466 78.9845 90.079 79.1169 90.2424 79.1169C90.4058 79.1169 90.5383 78.9845 90.5383 78.8211H90.2424H89.9466ZM90.5383 82.1862C90.5383 82.0228 90.4058 81.8904 90.2424 81.8904C90.079 81.8904 89.9466 82.0228 89.9466 82.1862H90.2424H90.5383ZM89.9466 85.5513C89.9466 85.7147 90.079 85.8471 90.2424 85.8471C90.4058 85.8471 90.5383 85.7147 90.5383 85.5513H90.2424H89.9466ZM90.5383 88.9164C90.5383 88.753 90.4058 88.6206 90.2424 88.6206C90.079 88.6206 89.9466 88.753 89.9466 88.9164H90.2424H90.5383ZM89.9466 92.2815C89.9466 92.4449 90.079 92.5774 90.2424 92.5774C90.4058 92.5774 90.5383 92.4449 90.5383 92.2815H90.2424H89.9466ZM90.5383 95.6466C90.5383 95.4832 90.4058 95.3508 90.2424 95.3508C90.079 95.3508 89.9466 95.4832 89.9466 95.6466H90.2424H90.5383ZM89.9466 99.0117C89.9466 99.1751 90.079 99.3076 90.2424 99.3076C90.4058 99.3076 90.5383 99.1751 90.5383 99.0117H90.2424H89.9466ZM90.5383 102.377C90.5383 102.213 90.4058 102.081 90.2424 102.081C90.079 102.081 89.9466 102.213 89.9466 102.377H90.2424H90.5383ZM89.9466 105.742C89.9466 105.905 90.079 106.038 90.2424 106.038C90.4058 106.038 90.5383 105.905 90.5383 105.742H90.2424H89.9466ZM90.5383 109.107C90.5383 108.944 90.4058 108.811 90.2424 108.811C90.079 108.811 89.9466 108.944 89.9466 109.107H90.2424H90.5383ZM89.9466 112.472C89.9466 112.636 90.079 112.768 90.2424 112.768C90.4058 112.768 90.5383 112.636 90.5383 112.472H90.2424H89.9466ZM90.5383 115.837C90.5383 115.674 90.4058 115.541 90.2424 115.541C90.079 115.541 89.9466 115.674 89.9466 115.837H90.2424H90.5383ZM89.9466 119.202C89.9466 119.366 90.079 119.498 90.2424 119.498C90.4058 119.498 90.5383 119.366 90.5383 119.202H90.2424H89.9466ZM90.5383 122.567C90.5383 122.404 90.4058 122.272 90.2424 122.272C90.079 122.272 89.9466 122.404 89.9466 122.567H90.2424H90.5383ZM90.3283 126.175C90.3909 126.326 90.564 126.398 90.7149 126.335C90.8658 126.273 90.9375 126.099 90.8749 125.949L90.6016 126.062L90.3283 126.175ZM93.2772 128.351C93.1263 128.288 92.9532 128.36 92.8906 128.511C92.828 128.662 92.8997 128.835 93.0506 128.897L93.1639 128.624L93.2772 128.351ZM96.7508 129.279C96.9141 129.279 97.0466 129.147 97.0466 128.983C97.0466 128.82 96.9141 128.688 96.7508 128.688V128.983V129.279ZM100.301 128.688C100.137 128.688 100.005 128.82 100.005 128.983C100.005 129.147 100.137 129.279 100.301 129.279V128.983V128.688ZM103.851 129.279C104.014 129.279 104.147 129.147 104.147 128.983C104.147 128.82 104.014 128.688 103.851 128.688V128.983V129.279ZM107.401 128.688C107.237 128.688 107.105 128.82 107.105 128.983C107.105 129.147 107.237 129.279 107.401 129.279V128.983V128.688ZM110.951 129.279C111.114 129.279 111.247 129.147 111.247 128.983C111.247 128.82 111.114 128.688 110.951 128.688V128.983V129.279ZM114.501 128.688C114.337 128.688 114.205 128.82 114.205 128.983C114.205 129.147 114.337 129.279 114.501 129.279V128.983V128.688ZM118.051 129.279C118.214 129.279 118.347 129.147 118.347 128.983C118.347 128.82 118.214 128.688 118.051 128.688V128.983V129.279ZM121.601 128.688C121.437 128.688 121.305 128.82 121.305 128.983C121.305 129.147 121.437 129.279 121.601 129.279V128.983V128.688ZM125.151 129.279C125.314 129.279 125.447 129.147 125.447 128.983C125.447 128.82 125.314 128.688 125.151 128.688V128.983V129.279ZM128.701 128.688C128.537 128.688 128.405 128.82 128.405 128.983C128.405 129.147 128.537 129.279 128.701 129.279V128.983V128.688ZM132.251 129.279C132.414 129.279 132.547 129.147 132.547 128.983C132.547 128.82 132.414 128.688 132.251 128.688V128.983V129.279ZM135.801 128.688C135.637 128.688 135.505 128.82 135.505 128.983C135.505 129.147 135.637 129.279 135.801 129.279V128.983V128.688ZM139.351 129.279C139.514 129.279 139.647 129.147 139.647 128.983C139.647 128.82 139.514 128.688 139.351 128.688V128.983V129.279ZM142.901 128.688C142.737 128.688 142.605 128.82 142.605 128.983C142.605 129.147 142.737 129.279 142.901 129.279V128.983V128.688ZM146.451 129.279C146.614 129.279 146.747 129.147 146.747 128.983C146.747 128.82 146.614 128.688 146.451 128.688V128.983V129.279ZM150.001 128.688C149.837 128.688 149.705 128.82 149.705 128.983C149.705 129.147 149.837 129.279 150.001 129.279V128.983V128.688ZM153.551 129.279C153.714 129.279 153.847 129.147 153.847 128.983C153.847 128.82 153.714 128.688 153.551 128.688V128.983V129.279ZM157.101 128.688C156.937 128.688 156.805 128.82 156.805 128.983C156.805 129.147 156.937 129.279 157.101 129.279V128.983V128.688ZM160.651 129.279C160.814 129.279 160.947 129.147 160.947 128.983C160.947 128.82 160.814 128.688 160.651 128.688V128.983V129.279ZM164.201 128.688C164.037 128.688 163.905 128.82 163.905 128.983C163.905 129.147 164.037 129.279 164.201 129.279V128.983V128.688ZM147.361 27.2167V26.9208H143.748V27.2167V27.5125H147.361V27.2167ZM140.135 27.2167V26.9208H136.522V27.2167V27.5125H140.135V27.2167ZM132.91 27.2167V26.9208H129.297V27.2167V27.5125H132.91V27.2167ZM125.684 27.2167V26.9208H122.071V27.2167V27.5125H125.684V27.2167ZM118.459 27.2167V26.9208H114.846V27.2167V27.5125H118.459V27.2167ZM111.233 27.2167V26.9208H107.62V27.2167V27.5125H111.233V27.2167ZM104.008 27.2167V26.9208H100.395V27.2167V27.5125H104.008V27.2167ZM96.7821 27.2167V26.9208H94.9758V27.2167V27.5125H96.7821V27.2167ZM94.9758 27.2167V26.9208C94.2943 26.9208 93.6437 27.0567 93.0503 27.303L93.1637 27.5762L93.2771 27.8494C93.7999 27.6324 94.3735 27.5125 94.9758 27.5125V27.2167ZM90.6016 30.1396L90.3283 30.0263C90.0823 30.6199 89.9466 31.2704 89.9466 31.9518H90.2424H90.5383C90.5383 31.3496 90.6581 30.7759 90.8749 30.2529L90.6016 30.1396ZM90.2424 31.9518H89.9466V33.8746H90.2424H90.5383V31.9518H90.2424ZM90.2424 37.7203H89.9466V41.5659H90.2424H90.5383V37.7203H90.2424ZM90.2424 45.4116H89.9466V49.2572H90.2424H90.5383V45.4116H90.2424ZM90.2424 53.1029H89.9466V56.9486H90.2424H90.5383V53.1029H90.2424ZM90.2424 60.7942H89.9466V64.6399H90.2424H90.5383V60.7942H90.2424ZM90.2424 68.4855H89.9466V70.4083H90.2424H90.5383V68.4855H90.2424ZM90.2424 70.4083H89.9466V72.0909H90.2424H90.5383V70.4083H90.2424ZM90.2424 75.456H89.9466V78.8211H90.2424H90.5383V75.456H90.2424ZM90.2424 82.1862H89.9466V85.5513H90.2424H90.5383V82.1862H90.2424ZM90.2424 88.9164H89.9466V92.2815H90.2424H90.5383V88.9164H90.2424ZM90.2424 95.6466H89.9466V99.0117H90.2424H90.5383V95.6466H90.2424ZM90.2424 102.377H89.9466V105.742H90.2424H90.5383V102.377H90.2424ZM90.2424 109.107H89.9466V112.472H90.2424H90.5383V109.107H90.2424ZM90.2424 115.837H89.9466V119.202H90.2424H90.5383V115.837H90.2424ZM90.2424 122.567H89.9466V124.25H90.2424H90.5383V122.567H90.2424ZM90.2424 124.25H89.9466C89.9466 124.931 90.0823 125.582 90.3283 126.175L90.6016 126.062L90.8749 125.949C90.6581 125.426 90.5383 124.852 90.5383 124.25H90.2424ZM93.1639 128.624L93.0506 128.897C93.644 129.144 94.2944 129.279 94.9758 129.279V128.983V128.688C94.3735 128.688 93.8 128.568 93.2772 128.351L93.1639 128.624ZM94.9758 128.983V129.279H96.7508V128.983V128.688H94.9758V128.983ZM100.301 128.983V129.279H103.851V128.983V128.688H100.301V128.983ZM107.401 128.983V129.279H110.951V128.983V128.688H107.401V128.983ZM114.501 128.983V129.279H118.051V128.983V128.688H114.501V128.983ZM121.601 128.983V129.279H125.151V128.983V128.688H121.601V128.983ZM128.701 128.983V129.279H132.251V128.983V128.688H128.701V128.983ZM135.801 128.983V129.279H139.351V128.983V128.688H135.801V128.983ZM142.901 128.983V129.279H146.451V128.983V128.688H142.901V128.983ZM150.001 128.983V129.279H153.551V128.983V128.688H150.001V128.983ZM157.101 128.983V129.279H160.651V128.983V128.688H157.101V128.983Z" fill="#C8C8F4" fill-opacity="0.5"/>
<defs>
<filter id="filter0_d_46_3415" x="181.606" y="112.639" width="23.1732" height="23.1734" filterUnits="userSpaceOnUse" color-interpolation-filters="sRGB">
<feFlood flood-opacity="0" result="BackgroundImageFix"/>
<feColorMatrix in="SourceAlpha" type="matrix" values="0 0 0 0 0 0 0 0 0 0 0 0 0 0 0 0 0 0 127 0" result="hardAlpha"/>
<feOffset dy="1.15867"/>
<feGaussianBlur stdDeviation="1.15867"/>
<feComposite in2="hardAlpha" operator="out"/>
<feColorMatrix type="matrix" values="0 0 0 0 0.0627451 0 0 0 0 0.0941176 0 0 0 0 0.156863 0 0 0 0.05 0"/>
<feBlend mode="normal" in2="BackgroundImageFix" result="effect1_dropShadow_46_3415"/>
<feBlend mode="normal" in="SourceGraphic" in2="effect1_dropShadow_46_3415" result="shape"/>
</filter>
<filter id="filter1_dd_46_3415" x="144.929" y="-1.19209e-06" width="105.993" height="71.4649" filterUnits="userSpaceOnUse" color-interpolation-filters="sRGB">
<feFlood flood-opacity="0" result="BackgroundImageFix"/>
<feColorMatrix in="SourceAlpha" type="matrix" values="0 0 0 0 0 0 0 0 0 0 0 0 0 0 0 0 0 0 127 0" result="hardAlpha"/>
<feMorphology radius="2.00744" operator="erode" in="SourceAlpha" result="effect1_dropShadow_46_3415"/>
<feOffset dy="8.02976"/>
<feGaussianBlur stdDeviation="5.0186"/>
<feComposite in2="hardAlpha" operator="out"/>
<feColorMatrix type="matrix" values="0 0 0 0 0 0 0 0 0 0 0 0 0 0 0 0 0 0 0.1 0"/>
<feBlend mode="normal" in2="BackgroundImageFix" result="effect1_dropShadow_46_3415"/>
<feColorMatrix in="SourceAlpha" type="matrix" values="0 0 0 0 0 0 0 0 0 0 0 0 0 0 0 0 0 0 127 0" result="hardAlpha"/>
<feMorphology radius="2.40893" operator="erode" in="SourceAlpha" result="effect2_dropShadow_46_3415"/>
<feOffset dy="3.2119"/>
<feGaussianBlur stdDeviation="2.00744"/>
<feComposite in2="hardAlpha" operator="out"/>
<feColorMatrix type="matrix" values="0 0 0 0 0 0 0 0 0 0 0 0 0 0 0 0 0 0 0.1 0"/>
<feBlend mode="normal" in2="effect1_dropShadow_46_3415" result="effect2_dropShadow_46_3415"/>
<feBlend mode="normal" in="SourceGraphic" in2="effect2_dropShadow_46_3415" result="shape"/>
</filter>
<clipPath id="clip0_46_3415">
<rect width="6.42381" height="6.42381" fill="white" transform="translate(159.783 7.62827)"/>
</clipPath>
<clipPath id="clip1_46_3415">
<rect width="52.0667" height="52.0667" fill="white" transform="translate(21.6091 48.5167)"/>
</clipPath>
</defs>
</svg>
