<svg width="305" height="195" viewBox="0 0 305 195" fill="none" xmlns="http://www.w3.org/2000/svg">
<foreignObject x="-17.3902" y="-17.3902" width="339.109" height="229.266"><div xmlns="http://www.w3.org/1999/xhtml" style="backdrop-filter:blur(8.7px);clip-path:url(#bgblur_0_46_3714_clip_path);height:100%;width:100%"></div></foreignObject><g data-figma-bg-blur-radius="17.3902">
<rect x="0.434755" y="0.434755" width="303.459" height="193.616" rx="9.99936" stroke="white" stroke-opacity="0.15" stroke-width="0.869509"/>
<path d="M22.7811 32.7377L21.9568 25.1208H22.9689L23.4802 30.5883C23.4941 30.7274 23.5045 30.8805 23.5115 31.0474C23.5254 31.2144 23.5358 31.3778 23.5428 31.5378C23.5567 31.6978 23.5636 31.8369 23.5636 31.9552C23.5776 31.8369 23.5915 31.6978 23.6054 31.5378C23.6193 31.3778 23.6332 31.2144 23.6471 31.0474C23.668 30.8805 23.6888 30.7274 23.7097 30.5883L24.3671 25.1208H25.4105L26.0261 30.5883C26.04 30.7274 26.0539 30.8805 26.0678 31.0474C26.0887 31.2144 26.1096 31.3778 26.1304 31.5378C26.1513 31.6978 26.1652 31.8369 26.1722 31.9552C26.1791 31.8369 26.1861 31.6978 26.193 31.5378C26.2069 31.3778 26.2209 31.2144 26.2348 31.0474C26.2487 30.8805 26.2626 30.7274 26.2765 30.5883L26.7982 25.1208H27.779L26.9234 32.7377H25.6192L25.0035 27.1972C24.9896 27.0511 24.9757 26.8981 24.9618 26.7381C24.9479 26.5712 24.934 26.4112 24.9201 26.2581C24.9062 26.0982 24.8923 25.966 24.8783 25.8617C24.8714 25.966 24.8609 26.0982 24.847 26.2581C24.8331 26.4112 24.8192 26.5712 24.8053 26.7381C24.7914 26.8981 24.774 27.0511 24.7531 27.1972L24.0958 32.7377H22.7811ZM32.1677 32.8421C31.6947 32.8421 31.2843 32.7551 30.9365 32.5812C30.5956 32.4004 30.3313 32.143 30.1435 31.8091C29.9626 31.4682 29.8722 31.0718 29.8722 30.6196V27.239C29.8722 26.7799 29.9626 26.3834 30.1435 26.0495C30.3313 25.7156 30.5956 25.4617 30.9365 25.2878C31.2843 25.1069 31.6947 25.0165 32.1677 25.0165C32.6407 25.0165 33.0476 25.1069 33.3885 25.2878C33.7363 25.4617 34.0006 25.7156 34.1815 26.0495C34.3693 26.3834 34.4632 26.7764 34.4632 27.2285V30.6196C34.4632 31.0718 34.3693 31.4682 34.1815 31.8091C34.0006 32.143 33.7363 32.4004 33.3885 32.5812C33.0476 32.7551 32.6407 32.8421 32.1677 32.8421ZM32.1677 31.8404C32.5503 31.8404 32.839 31.7361 33.0337 31.5274C33.2355 31.3117 33.3363 31.0091 33.3363 30.6196V27.239C33.3363 26.8425 33.2355 26.5399 33.0337 26.3312C32.839 26.1225 32.5503 26.0182 32.1677 26.0182C31.7921 26.0182 31.5034 26.1225 31.3017 26.3312C31.0999 26.5399 30.9991 26.8425 30.9991 27.239V30.6196C30.9991 31.0091 31.0999 31.3117 31.3017 31.5274C31.5034 31.7361 31.7921 31.8404 32.1677 31.8404ZM37.2137 32.7377V25.1208H39.6032C40.0831 25.1208 40.5005 25.2147 40.8552 25.4026C41.21 25.5834 41.4848 25.8408 41.6795 26.1747C41.8813 26.5086 41.9821 26.9016 41.9821 27.3537C41.9821 27.8615 41.85 28.3032 41.5856 28.6789C41.3283 29.0475 40.977 29.3084 40.5318 29.4614L42.0865 32.7377H40.8031L39.4153 29.6075H38.3406V32.7377H37.2137ZM38.3406 28.6163H39.6032C39.9788 28.6163 40.2779 28.505 40.5005 28.2824C40.7231 28.0528 40.8344 27.7502 40.8344 27.3746C40.8344 26.9851 40.7231 26.679 40.5005 26.4564C40.2779 26.2338 39.9788 26.1225 39.6032 26.1225H38.3406V28.6163ZM44.5135 32.7377V25.1208H45.6404V28.2928H46.6525L48.2072 25.1208H49.4384L47.6438 28.7728L49.5219 32.7377H48.2594L46.6317 29.3049H45.6404V32.7377H44.5135ZM51.8551 32.7377V25.1104H56.4565V26.1538H52.9507V28.4284H56.1852V29.4719H52.9715V32.7377H51.8551ZM59.374 32.7377V25.1208H60.5009V31.7048H63.8294V32.7377H59.374ZM68.6667 32.8421C68.1937 32.8421 67.7833 32.7551 67.4355 32.5812C67.0946 32.4004 66.8303 32.143 66.6425 31.8091C66.4616 31.4682 66.3712 31.0718 66.3712 30.6196V27.239C66.3712 26.7799 66.4616 26.3834 66.6425 26.0495C66.8303 25.7156 67.0946 25.4617 67.4355 25.2878C67.7833 25.1069 68.1937 25.0165 68.6667 25.0165C69.1397 25.0165 69.5467 25.1069 69.8875 25.2878C70.2353 25.4617 70.4996 25.7156 70.6805 26.0495C70.8683 26.3834 70.9622 26.7764 70.9622 27.2285V30.6196C70.9622 31.0718 70.8683 31.4682 70.6805 31.8091C70.4996 32.143 70.2353 32.4004 69.8875 32.5812C69.5467 32.7551 69.1397 32.8421 68.6667 32.8421ZM68.6667 31.8404C69.0493 31.8404 69.338 31.7361 69.5327 31.5274C69.7345 31.3117 69.8353 31.0091 69.8353 30.6196V27.239C69.8353 26.8425 69.7345 26.5399 69.5327 26.3312C69.338 26.1225 69.0493 26.0182 68.6667 26.0182C68.2911 26.0182 68.0024 26.1225 67.8007 26.3312C67.599 26.5399 67.4981 26.8425 67.4981 27.239V30.6196C67.4981 31.0091 67.599 31.3117 67.8007 31.5274C68.0024 31.7361 68.2911 31.8404 68.6667 31.8404ZM73.8797 32.7377L73.0554 25.1208H74.0675L74.5788 30.5883C74.5927 30.7274 74.6031 30.8805 74.6101 31.0474C74.624 31.2144 74.6344 31.3778 74.6414 31.5378C74.6553 31.6978 74.6623 31.8369 74.6623 31.9552C74.6762 31.8369 74.6901 31.6978 74.704 31.5378C74.7179 31.3778 74.7318 31.2144 74.7457 31.0474C74.7666 30.8805 74.7875 30.7274 74.8083 30.5883L75.4657 25.1208H76.5091L77.1247 30.5883C77.1386 30.7274 77.1525 30.8805 77.1664 31.0474C77.1873 31.2144 77.2082 31.3778 77.229 31.5378C77.2499 31.6978 77.2638 31.8369 77.2708 31.9552C77.2777 31.8369 77.2847 31.6978 77.2917 31.5378C77.3056 31.3778 77.3195 31.2144 77.3334 31.0474C77.3473 30.8805 77.3612 30.7274 77.3751 30.5883L77.8968 25.1208H78.8776L78.022 32.7377H76.7178L76.1022 27.1972C76.0882 27.0511 76.0743 26.8981 76.0604 26.7381C76.0465 26.5712 76.0326 26.4112 76.0187 26.2581C76.0048 26.0982 75.9909 25.966 75.977 25.8617C75.97 25.966 75.9596 26.0982 75.9456 26.2581C75.9317 26.4112 75.9178 26.5712 75.9039 26.7381C75.89 26.8981 75.8726 27.0511 75.8517 27.1972L75.1944 32.7377H73.8797ZM88.4167 32.7377V25.1208H92.8929V26.1225H89.5227V28.2824H92.5277V29.2736H89.5227V31.7361H92.8929V32.7377H88.4167ZM95.5809 32.7377V25.1208H96.9999L99.2224 31.4543C99.2084 31.2526 99.1911 31.0126 99.1702 30.7344C99.1493 30.4561 99.1319 30.1675 99.118 29.8684C99.1111 29.5692 99.1076 29.298 99.1076 29.0545V25.1208H100.151V32.7377H98.732L96.5199 26.4042C96.5338 26.5851 96.5477 26.8112 96.5617 27.0824C96.5825 27.3537 96.5964 27.6355 96.6034 27.9276C96.6173 28.2198 96.6243 28.491 96.6243 28.7415V32.7377H95.5809ZM105.207 32.8421C104.734 32.8421 104.321 32.7551 103.966 32.5812C103.618 32.4004 103.347 32.143 103.152 31.8091C102.964 31.4682 102.87 31.0718 102.87 30.6196V27.239C102.87 26.7799 102.964 26.3834 103.152 26.0495C103.347 25.7156 103.618 25.4617 103.966 25.2878C104.321 25.1069 104.734 25.0165 105.207 25.0165C105.68 25.0165 106.091 25.1069 106.439 25.2878C106.786 25.4686 107.054 25.726 107.242 26.0599C107.437 26.3868 107.534 26.7799 107.534 27.239H106.407C106.407 26.8425 106.303 26.5399 106.094 26.3312C105.886 26.1225 105.59 26.0182 105.207 26.0182C104.825 26.0182 104.526 26.1225 104.31 26.3312C104.101 26.5399 103.997 26.839 103.997 27.2285V30.6196C103.997 31.0091 104.101 31.3117 104.31 31.5274C104.526 31.743 104.825 31.8508 105.207 31.8508C105.59 31.8508 105.886 31.743 106.094 31.5274C106.303 31.3117 106.407 31.0091 106.407 30.6196V29.764H104.988V28.7728H107.534V30.6196C107.534 31.0718 107.437 31.4648 107.242 31.7987C107.054 32.1326 106.786 32.3899 106.439 32.5708C106.091 32.7516 105.68 32.8421 105.207 32.8421ZM110.358 32.7377V31.7361H111.892V26.1225H110.358V25.1208H114.573V26.1225H113.039V31.7361H114.573V32.7377H110.358ZM117.48 32.7377V25.1208H118.899L121.122 31.4543C121.108 31.2526 121.09 31.0126 121.07 30.7344C121.049 30.4561 121.031 30.1675 121.017 29.8684C121.01 29.5692 121.007 29.298 121.007 29.0545V25.1208H122.05V32.7377H120.631L118.419 26.4042C118.433 26.5851 118.447 26.8112 118.461 27.0824C118.482 27.3537 118.496 27.6355 118.503 27.9276C118.517 28.2198 118.524 28.491 118.524 28.7415V32.7377H117.48ZM124.916 32.7377V25.1208H129.392V26.1225H126.022V28.2824H129.027V29.2736H126.022V31.7361H129.392V32.7377H124.916Z" fill="#EDEDFC"/>
<rect x="265.2" y="25.2597" width="6.95607" height="6.95607" rx="3.47804" fill="#ECEAF5"/>
<rect x="275.634" y="25.2597" width="6.95607" height="6.95607" rx="3.47804" fill="#ADC6FF" fill-opacity="0.2"/>
<rect x="21.7378" y="87.0388" width="260.853" height="0.869509" fill="#7071E3"/>
<g filter="url(#filter1_d_46_3714)">
<rect x="21.7378" y="86.1693" width="104.341" height="1.73902" fill="#C8C8F4"/>
</g>
<foreignObject x="0.869432" y="44.8237" width="90.429" height="90.429"><div xmlns="http://www.w3.org/1999/xhtml" style="backdrop-filter:blur(8.7px);clip-path:url(#bgblur_1_46_3714_clip_path);height:100%;width:100%"></div></foreignObject><g filter="url(#filter2_d_46_3714)" data-figma-bg-blur-radius="17.3902">
<rect x="28.6937" y="65.6919" width="34.7804" height="34.7804" rx="17.3902" fill="white" fill-opacity="0.05" shape-rendering="crispEdges"/>
<rect x="29.1285" y="66.1266" width="33.9109" height="33.9109" rx="16.9554" stroke="white" stroke-opacity="0.54" stroke-width="0.869509" shape-rendering="crispEdges"/>
<path d="M43.1856 87.4296H48.9823V85.9804H43.1856V87.4296ZM43.1856 84.5312H48.9823V83.082H43.1856V84.5312ZM41.7364 90.3279C41.3379 90.3279 40.9967 90.186 40.7129 89.9022C40.4291 89.6184 40.2872 89.2773 40.2872 88.8788V77.2853C40.2872 76.8868 40.4291 76.5456 40.7129 76.2618C40.9967 75.978 41.3379 75.8361 41.7364 75.8361H47.5331L51.8807 80.1837V88.8788C51.8807 89.2773 51.7388 89.6184 51.455 89.9022C51.1712 90.186 50.83 90.3279 50.4315 90.3279H41.7364ZM46.8086 80.9083H50.4315L46.8086 77.2853V80.9083Z" fill="#EDEDFC"/>
<rect x="29.9984" y="66.9962" width="32.1718" height="32.1718" rx="16.0859" stroke="white" stroke-opacity="0.05" stroke-width="0.869509"/>
</g>
<path d="M40.4603 118.428V110.811H42.9541C43.448 110.811 43.8758 110.905 44.2375 111.093C44.6061 111.281 44.8879 111.549 45.0826 111.897C45.2844 112.237 45.3852 112.641 45.3852 113.107C45.3852 113.566 45.2844 113.97 45.0826 114.317C44.8809 114.665 44.5992 114.933 44.2375 115.121C43.8758 115.309 43.448 115.402 42.9541 115.402H41.5872V118.428H40.4603ZM41.5872 114.39H42.9541C43.3436 114.39 43.6532 114.276 43.8827 114.046C44.1192 113.81 44.2375 113.496 44.2375 113.107C44.2375 112.71 44.1192 112.397 43.8827 112.168C43.6532 111.938 43.3436 111.824 42.9541 111.824H41.5872V114.39ZM46.7167 118.428V110.811H49.1061C49.5861 110.811 50.0035 110.905 50.3582 111.093C50.713 111.274 50.9877 111.531 51.1825 111.865C51.3842 112.199 51.4851 112.592 51.4851 113.044C51.4851 113.552 51.3529 113.994 51.0886 114.369C50.8312 114.738 50.48 114.999 50.0348 115.152L51.5894 118.428H50.3061L48.9183 115.298H47.8436V118.428H46.7167ZM47.8436 114.307H49.1061C49.4818 114.307 49.7809 114.196 50.0035 113.973C50.2261 113.743 50.3374 113.441 50.3374 113.065C50.3374 112.676 50.2261 112.37 50.0035 112.147C49.7809 111.924 49.4818 111.813 49.1061 111.813H47.8436V114.307Z" fill="#F2F2F2"/>
<foreignObject x="106.95" y="49.65" width="90.429" height="90.429"><div xmlns="http://www.w3.org/1999/xhtml" style="backdrop-filter:blur(8.7px);clip-path:url(#bgblur_2_46_3714_clip_path);height:100%;width:100%"></div></foreignObject><g filter="url(#filter3_d_46_3714)" data-figma-bg-blur-radius="17.3902">
<rect x="134.774" y="70.5182" width="34.7804" height="34.7804" rx="17.3902" fill="white" fill-opacity="0.05" shape-rendering="crispEdges"/>
<rect x="135.209" y="70.9529" width="33.9109" height="33.9109" rx="16.9554" stroke="white" stroke-opacity="0.54" stroke-width="0.869509" shape-rendering="crispEdges"/>
<path d="M149.925 97.3291C149.467 97.3291 149.074 97.1659 148.748 96.8396C148.422 96.5132 148.258 96.1208 148.258 95.6625C148.258 95.2041 148.422 94.8118 148.748 94.4854C149.074 94.159 149.467 93.9958 149.925 93.9958C150.383 93.9958 150.776 94.159 151.102 94.4854C151.429 94.8118 151.592 95.2041 151.592 95.6625C151.592 96.1208 151.429 96.5132 151.102 96.8396C150.776 97.1659 150.383 97.3291 149.925 97.3291ZM158.258 97.3291C157.8 97.3291 157.408 97.1659 157.081 96.8396C156.755 96.5132 156.592 96.1208 156.592 95.6625C156.592 95.2041 156.755 94.8118 157.081 94.4854C157.408 94.159 157.8 93.9958 158.258 93.9958C158.717 93.9958 159.109 94.159 159.435 94.4854C159.762 94.8118 159.925 95.2041 159.925 95.6625C159.925 96.1208 159.762 96.5132 159.435 96.8396C159.109 97.1659 158.717 97.3291 158.258 97.3291ZM149.217 83.9958L151.217 88.1625H157.05L159.342 83.9958H149.217ZM148.425 82.3291H160.717C161.036 82.3291 161.279 82.4715 161.446 82.7562C161.613 83.0409 161.619 83.3291 161.467 83.6208L158.508 88.9541C158.356 89.2319 158.151 89.4472 157.894 89.6C157.637 89.7528 157.356 89.8291 157.05 89.8291H150.842L149.925 91.4958H159.925V93.1625H149.925C149.3 93.1625 148.828 92.8882 148.508 92.3396C148.189 91.7909 148.175 91.2458 148.467 90.7041L149.592 88.6625L146.592 82.3291H144.925V80.6625H147.633L148.425 82.3291ZM151.217 88.1625H157.05H151.217Z" fill="#EDEDFC"/>
<rect x="136.078" y="71.8224" width="32.1718" height="32.1718" rx="16.0859" stroke="white" stroke-opacity="0.05" stroke-width="0.869509"/>
</g>
<path d="M146.541 123.255V115.638H149.034C149.528 115.638 149.956 115.732 150.318 115.919C150.686 116.107 150.968 116.375 151.163 116.723C151.365 117.064 151.466 117.467 151.466 117.933C151.466 118.392 151.365 118.796 151.163 119.144C150.961 119.491 150.68 119.759 150.318 119.947C149.956 120.135 149.528 120.229 149.034 120.229H147.668V123.255H146.541ZM147.668 119.217H149.034C149.424 119.217 149.733 119.102 149.963 118.872C150.2 118.636 150.318 118.323 150.318 117.933C150.318 117.537 150.2 117.224 149.963 116.994C149.733 116.765 149.424 116.65 149.034 116.65H147.668V119.217ZM155.051 123.359C154.578 123.359 154.167 123.272 153.82 123.098C153.479 122.917 153.214 122.66 153.027 122.326C152.846 121.985 152.755 121.589 152.755 121.136V117.756C152.755 117.297 152.846 116.9 153.027 116.566C153.214 116.232 153.479 115.979 153.82 115.805C154.167 115.624 154.578 115.533 155.051 115.533C155.524 115.533 155.931 115.624 156.272 115.805C156.619 115.979 156.884 116.232 157.065 116.566C157.252 116.9 157.346 117.293 157.346 117.745V121.136C157.346 121.589 157.252 121.985 157.065 122.326C156.884 122.66 156.619 122.917 156.272 123.098C155.931 123.272 155.524 123.359 155.051 123.359ZM155.051 122.357C155.433 122.357 155.722 122.253 155.917 122.044C156.119 121.829 156.219 121.526 156.219 121.136V117.756C156.219 117.359 156.119 117.057 155.917 116.848C155.722 116.639 155.433 116.535 155.051 116.535C154.675 116.535 154.387 116.639 154.185 116.848C153.983 117.057 153.882 117.359 153.882 117.756V121.136C153.882 121.526 153.983 121.829 154.185 122.044C154.387 122.253 154.675 122.357 155.051 122.357Z" fill="#ADADEF"/>
<foreignObject x="213.03" y="47.9108" width="90.429" height="90.429"><div xmlns="http://www.w3.org/1999/xhtml" style="backdrop-filter:blur(8.7px);clip-path:url(#bgblur_3_46_3714_clip_path);height:100%;width:100%"></div></foreignObject><g filter="url(#filter4_d_46_3714)" data-figma-bg-blur-radius="17.3902">
<rect x="240.854" y="68.779" width="34.7804" height="34.7804" rx="17.3902" fill="white" fill-opacity="0.05" shape-rendering="crispEdges"/>
<rect x="241.289" y="69.2137" width="33.9109" height="33.9109" rx="16.9554" stroke="white" stroke-opacity="0.54" stroke-width="0.869509" shape-rendering="crispEdges"/>
<path d="M253.499 95.5898C253.04 95.5898 252.648 95.4266 252.321 95.1002C251.995 94.7739 251.832 94.3815 251.832 93.9232V84.5273C251.582 84.3745 251.38 84.1766 251.228 83.9336C251.075 83.6905 250.999 83.4093 250.999 83.0898V80.5898C250.999 80.1315 251.162 79.7391 251.488 79.4127C251.815 79.0864 252.207 78.9232 252.665 78.9232H265.999C266.457 78.9232 266.849 79.0864 267.176 79.4127C267.502 79.7391 267.665 80.1315 267.665 80.5898V83.0898C267.665 83.4093 267.589 83.6905 267.436 83.9336C267.283 84.1766 267.082 84.3745 266.832 84.5273V93.9232C266.832 94.3815 266.669 94.7739 266.342 95.1002C266.016 95.4266 265.624 95.5898 265.165 95.5898H253.499ZM253.499 84.7565V93.9232H265.165V84.7565H253.499ZM252.665 83.0898H265.999V80.5898H252.665V83.0898ZM256.832 88.9232H261.832V87.2565H256.832V88.9232Z" fill="#EDEDFC"/>
<rect x="242.158" y="70.0832" width="32.1718" height="32.1718" rx="16.0859" stroke="white" stroke-opacity="0.05" stroke-width="0.869509"/>
</g>
<path d="M251.916 121.62C251.443 121.62 251.029 121.533 250.674 121.359C250.327 121.178 250.055 120.921 249.861 120.587C249.673 120.246 249.579 119.849 249.579 119.397V116.017C249.579 115.558 249.673 115.161 249.861 114.827C250.055 114.493 250.327 114.239 250.674 114.065C251.029 113.885 251.443 113.794 251.916 113.794C252.389 113.794 252.8 113.885 253.147 114.065C253.495 114.246 253.763 114.504 253.951 114.838C254.146 115.165 254.243 115.558 254.243 116.017H253.116C253.116 115.62 253.012 115.318 252.803 115.109C252.594 114.9 252.299 114.796 251.916 114.796C251.534 114.796 251.234 114.9 251.019 115.109C250.81 115.318 250.706 115.617 250.706 116.006V119.397C250.706 119.787 250.81 120.089 251.019 120.305C251.234 120.521 251.534 120.629 251.916 120.629C252.299 120.629 252.594 120.521 252.803 120.305C253.012 120.089 253.116 119.787 253.116 119.397V118.542H251.697V117.55H254.243V119.397C254.243 119.849 254.146 120.242 253.951 120.576C253.763 120.91 253.495 121.168 253.147 121.348C252.8 121.529 252.389 121.62 251.916 121.62ZM255.877 121.515V113.899H258.266C258.746 113.899 259.164 113.992 259.519 114.18C259.873 114.361 260.148 114.618 260.343 114.952C260.545 115.286 260.645 115.679 260.645 116.131C260.645 116.639 260.513 117.081 260.249 117.457C259.992 117.825 259.64 118.086 259.195 118.239L260.75 121.515H259.466L258.079 118.385H257.004V121.515H255.877ZM257.004 117.394H258.266C258.642 117.394 258.941 117.283 259.164 117.06C259.386 116.831 259.498 116.528 259.498 116.152C259.498 115.763 259.386 115.457 259.164 115.234C258.941 115.012 258.642 114.9 258.266 114.9H257.004V117.394ZM262.102 121.515V113.899H263.521L265.744 120.232C265.73 120.03 265.712 119.79 265.691 119.512C265.671 119.234 265.653 118.945 265.639 118.646C265.632 118.347 265.629 118.076 265.629 117.832V113.899H266.672V121.515H265.253L263.041 115.182C263.055 115.363 263.069 115.589 263.083 115.86C263.104 116.131 263.118 116.413 263.125 116.705C263.139 116.997 263.145 117.269 263.145 117.519V121.515H262.102Z" fill="#ADADEF"/>
<g opacity="0.6">
<g clip-path="url(#clip4_46_3714)">
<rect x="21.7377" y="137.47" width="260.853" height="13.9121" rx="6.95607" fill="#7071E3"/>
<rect x="21.7377" y="137.47" width="182.597" height="13.9121" fill="#C8C8F4"/>
</g>
<g clip-path="url(#clip5_46_3714)">
<rect x="21.7378" y="158.339" width="195.64" height="13.9121" rx="6.95607" fill="#7071E3"/>
<rect x="21.7378" y="158.339" width="78.2558" height="13.9121" fill="#C8C8F4"/>
</g>
</g>
</g>
<defs>
<clipPath id="bgblur_0_46_3714_clip_path" transform="translate(17.3902 17.3902)"><rect width="304.328" height="194.486" rx="10.4341"/>
</clipPath><filter id="filter1_d_46_3714" x="13.0427" y="77.4742" width="121.731" height="19.1292" filterUnits="userSpaceOnUse" color-interpolation-filters="sRGB">
<feFlood flood-opacity="0" result="BackgroundImageFix"/>
<feColorMatrix in="SourceAlpha" type="matrix" values="0 0 0 0 0 0 0 0 0 0 0 0 0 0 0 0 0 0 127 0" result="hardAlpha"/>
<feOffset/>
<feGaussianBlur stdDeviation="4.34755"/>
<feComposite in2="hardAlpha" operator="out"/>
<feColorMatrix type="matrix" values="0 0 0 0 0.678431 0 0 0 0 0.776471 0 0 0 0 1 0 0 0 0.5 0"/>
<feBlend mode="normal" in2="BackgroundImageFix" result="effect1_dropShadow_46_3714"/>
<feBlend mode="normal" in="SourceGraphic" in2="effect1_dropShadow_46_3714" result="shape"/>
</filter>
<filter id="filter2_d_46_3714" x="0.869432" y="44.8237" width="90.429" height="90.429" filterUnits="userSpaceOnUse" color-interpolation-filters="sRGB">
<feFlood flood-opacity="0" result="BackgroundImageFix"/>
<feColorMatrix in="SourceAlpha" type="matrix" values="0 0 0 0 0 0 0 0 0 0 0 0 0 0 0 0 0 0 127 0" result="hardAlpha"/>
<feOffset dy="6.95607"/>
<feGaussianBlur stdDeviation="13.9121"/>
<feComposite in2="hardAlpha" operator="out"/>
<feColorMatrix type="matrix" values="0 0 0 0 0 0 0 0 0 0 0 0 0 0 0 0 0 0 0.3 0"/>
<feBlend mode="normal" in2="BackgroundImageFix" result="effect1_dropShadow_46_3714"/>
<feBlend mode="normal" in="SourceGraphic" in2="effect1_dropShadow_46_3714" result="shape"/>
</filter>
<clipPath id="bgblur_1_46_3714_clip_path" transform="translate(-0.869432 -44.8237)"><rect x="28.6937" y="65.6919" width="34.7804" height="34.7804" rx="17.3902"/>
</clipPath><filter id="filter3_d_46_3714" x="106.95" y="49.65" width="90.429" height="90.429" filterUnits="userSpaceOnUse" color-interpolation-filters="sRGB">
<feFlood flood-opacity="0" result="BackgroundImageFix"/>
<feColorMatrix in="SourceAlpha" type="matrix" values="0 0 0 0 0 0 0 0 0 0 0 0 0 0 0 0 0 0 127 0" result="hardAlpha"/>
<feOffset dy="6.95607"/>
<feGaussianBlur stdDeviation="13.9121"/>
<feComposite in2="hardAlpha" operator="out"/>
<feColorMatrix type="matrix" values="0 0 0 0 0 0 0 0 0 0 0 0 0 0 0 0 0 0 0.3 0"/>
<feBlend mode="normal" in2="BackgroundImageFix" result="effect1_dropShadow_46_3714"/>
<feBlend mode="normal" in="SourceGraphic" in2="effect1_dropShadow_46_3714" result="shape"/>
</filter>
<clipPath id="bgblur_2_46_3714_clip_path" transform="translate(-106.95 -49.65)"><rect x="134.774" y="70.5182" width="34.7804" height="34.7804" rx="17.3902"/>
</clipPath><filter id="filter4_d_46_3714" x="213.03" y="47.9108" width="90.429" height="90.429" filterUnits="userSpaceOnUse" color-interpolation-filters="sRGB">
<feFlood flood-opacity="0" result="BackgroundImageFix"/>
<feColorMatrix in="SourceAlpha" type="matrix" values="0 0 0 0 0 0 0 0 0 0 0 0 0 0 0 0 0 0 127 0" result="hardAlpha"/>
<feOffset dy="6.95607"/>
<feGaussianBlur stdDeviation="13.9121"/>
<feComposite in2="hardAlpha" operator="out"/>
<feColorMatrix type="matrix" values="0 0 0 0 0 0 0 0 0 0 0 0 0 0 0 0 0 0 0.3 0"/>
<feBlend mode="normal" in2="BackgroundImageFix" result="effect1_dropShadow_46_3714"/>
<feBlend mode="normal" in="SourceGraphic" in2="effect1_dropShadow_46_3714" result="shape"/>
</filter>
<clipPath id="bgblur_3_46_3714_clip_path" transform="translate(-213.03 -47.9108)"><rect x="240.854" y="68.779" width="34.7804" height="34.7804" rx="17.3902"/>
</clipPath><clipPath id="clip4_46_3714">
<rect x="21.7377" y="137.47" width="260.853" height="13.9121" rx="6.95607" fill="white"/>
</clipPath>
<clipPath id="clip5_46_3714">
<rect x="21.7378" y="158.339" width="195.64" height="13.9121" rx="6.95607" fill="white"/>
</clipPath>
</defs>
</svg>
